<svg width="155" height="23" viewBox="0 0 155 23" fill="none" xmlns="http://www.w3.org/2000/svg">
<mask id="mask0_2225_3699" style="mask-type:luminance" maskUnits="userSpaceOnUse" x="0" y="0" width="23" height="23">
<path d="M22.5545 0.015625H0.4375V22.1471H22.5545V0.015625Z" fill="white"/>
</mask>
<g mask="url(#mask0_2225_3699)">
<path d="M11.4958 22.0762C5.43677 22.0762 0.507812 17.1439 0.507812 11.0809C0.507812 5.01787 5.43808 0.0856934 11.4958 0.0856934C17.5549 0.0856934 22.4839 5.01787 22.4839 11.0809C22.4839 17.1439 17.5549 22.0762 11.4958 22.0762ZM11.4958 0.481616C5.65528 0.481616 0.903474 5.23526 0.903474 11.0809C0.903474 16.9266 5.65528 21.6802 11.4958 21.6802C17.3364 21.6802 22.0882 16.9253 22.0882 11.0809C22.0882 5.23657 17.3364 0.481616 11.4958 0.481616Z" fill="black"/>
<path d="M11.4953 22.1471C5.39879 22.1471 0.4375 17.1826 0.4375 11.0807C0.4375 4.97887 5.39879 0.015625 11.4953 0.015625C17.5932 0.015625 22.5531 4.98018 22.5531 11.0807C22.5531 17.1813 17.5932 22.1471 11.4953 22.1471ZM11.4953 0.156656C5.47508 0.156656 0.578438 5.05782 0.578438 11.0807C0.578438 17.1049 5.47634 22.0061 11.4953 22.0061C17.5143 22.0061 22.4122 17.1049 22.4122 11.0807C22.4135 5.05782 17.5156 0.156656 11.4953 0.156656ZM11.4953 21.7512C5.616 21.7512 0.83316 16.9652 0.83316 11.082C0.83316 5.19883 5.616 0.411548 11.4953 0.411548C17.3746 0.411548 22.1588 5.19756 22.1588 11.0807C22.1588 16.9639 17.376 21.7512 11.4953 21.7512ZM11.4953 0.552575C5.69359 0.552575 0.974102 5.27516 0.974102 11.0807C0.974102 16.8863 5.69359 21.6089 11.4953 21.6089C17.2971 21.6089 22.0179 16.8863 22.0179 11.0807C22.0179 5.27516 17.2971 0.552575 11.4953 0.552575Z" fill="black"/>
<path d="M11.583 16.0604C8.60907 16.0604 6.14068 15.6438 4.44555 14.8546C2.91074 14.1403 2.06641 13.1493 2.06641 12.0624C2.06641 10.383 4.64984 7.72021 11.5843 7.72021C18.0997 7.72021 21.0155 9.85767 21.0155 11.977C21.0142 13.6189 18.5032 16.0604 11.583 16.0604ZM11.583 8.11614C7.90822 8.11614 5.73468 8.87819 4.55804 9.51738C3.24434 10.2303 2.46077 11.1826 2.46077 12.0637C2.46077 14.5388 7.18931 15.6658 11.583 15.6658C18.1657 15.6658 20.6185 13.4041 20.6185 11.9783C20.6185 9.32457 15.9353 8.11614 11.583 8.11614Z" fill="black"/>
<path d="M11.5812 16.1311C8.59688 16.1311 6.11946 15.712 4.41271 14.9188C2.85204 14.193 1.99219 13.1786 1.99219 12.0632C1.99219 10.3567 4.59502 7.6499 11.5798 7.6499C18.1432 7.6499 21.0809 9.82358 21.0809 11.9766C21.0835 13.647 18.5518 16.1311 11.5812 16.1311ZM11.5812 7.79091C4.69846 7.79091 2.13442 10.411 2.13442 12.0632C2.13442 13.1204 2.96453 14.0894 4.47348 14.7907C6.16084 15.5748 8.61888 15.9901 11.5825 15.9901C18.4496 15.9901 20.9426 13.59 20.9426 11.9766C20.9413 9.89345 18.0475 7.79091 11.5812 7.79091ZM11.5812 15.7352C7.15391 15.7352 2.38914 14.5863 2.38914 12.0632C2.38914 11.1563 3.18693 10.1807 4.52261 9.45484C5.7057 8.81181 7.89089 8.04583 11.5812 8.04583C15.9671 8.04583 20.6866 9.2763 20.6866 11.9766C20.6879 13.4296 18.2156 15.7352 11.5812 15.7352ZM11.5812 8.18684C7.92065 8.18684 5.75872 8.94374 4.58985 9.57905C3.29942 10.279 2.53008 11.208 2.53008 12.0632C2.53008 13.4542 4.08816 14.2783 5.3954 14.7247C7.01295 15.2772 9.26796 15.5942 11.5812 15.5942C18.1122 15.5942 20.5456 13.3752 20.5456 11.9766C20.5469 9.37331 15.8998 8.18684 11.5812 8.18684Z" fill="black"/>
<path d="M11.5583 16.0604C6.90858 16.0604 4.82812 14.0524 4.82812 12.0624C4.82812 10.383 6.65515 7.72021 11.5583 7.72021C16.1833 7.72021 18.2535 9.85767 18.2535 11.977C18.2535 12.9797 17.6509 13.9838 16.5997 14.729C15.7437 15.3372 14.174 16.0604 11.5583 16.0604ZM11.5583 8.11614C6.94349 8.11614 5.22378 10.5382 5.22378 12.0637C5.22378 13.857 7.18269 15.6658 11.5583 15.6658C14.6124 15.6658 17.8578 14.3732 17.8578 11.9783C17.8591 10.0556 15.9105 8.11614 11.5583 8.11614Z" fill="black"/>
<path d="M11.559 16.1311C6.86152 16.1311 4.75781 14.0881 4.75781 12.0632C4.75781 10.3567 6.60421 7.6499 11.559 7.6499C16.2333 7.6499 18.3254 9.82358 18.3254 11.9766C18.3254 13.0026 17.7112 14.026 16.6419 14.7855C15.7769 15.4001 14.1929 16.1311 11.559 16.1311ZM11.559 7.79091C6.70769 7.79091 4.89873 10.411 4.89873 12.0632C4.89873 14.0183 6.9585 15.9901 11.559 15.9901C14.1554 15.9901 15.7122 15.2733 16.5604 14.6717C17.5922 13.9394 18.1845 12.9573 18.1845 11.9779C18.1845 9.89345 16.1363 7.79091 11.559 7.79091ZM11.559 15.7352C7.13437 15.7352 5.15347 13.8915 5.15347 12.0632C5.15347 10.5093 6.89255 8.04583 11.559 8.04583C15.9592 8.04583 17.9297 10.0202 17.9297 11.9766C17.9297 14.4181 14.6481 15.7352 11.559 15.7352ZM11.559 8.18684C6.99603 8.18684 5.29443 10.565 5.29443 12.0632C5.29443 13.8203 7.23135 15.5942 11.559 15.5942C14.5795 15.5942 17.7888 14.3262 17.7888 11.9766C17.7888 10.0901 15.8622 8.18684 11.559 8.18684Z" fill="black"/>
<path d="M11.4959 16.0604C9.96754 16.0604 9.05469 13.9851 9.05469 11.9783C9.05469 9.71015 10.1951 7.72021 11.4959 7.72021C12.7967 7.72021 13.9371 9.71015 13.9371 11.9783C13.9371 14.3448 12.9104 16.0604 11.4959 16.0604ZM11.4959 8.11614C10.4253 8.11614 9.45035 9.9573 9.45035 11.9783C9.45035 13.7509 10.2326 15.6645 11.4959 15.6645C12.6816 15.6645 13.5415 14.1145 13.5415 11.9783C13.5427 9.9573 12.5665 8.11614 11.4959 8.11614Z" fill="black"/>
<path d="M11.4928 16.1311C9.92052 16.1311 8.98047 14.0196 8.98047 11.9791C8.98047 9.67349 10.1545 7.6499 11.4928 7.6499C12.8311 7.6499 14.0051 9.67222 14.0051 11.9791C14.0051 14.3844 12.9487 16.1311 11.4928 16.1311ZM11.4928 7.79091C10.2295 7.79091 9.12143 9.74855 9.12143 11.9791C9.12143 13.951 10.0084 15.9901 11.4928 15.9901C12.866 15.9901 13.8642 14.3029 13.8642 11.9791C13.8642 9.74725 12.7561 7.79091 11.4928 7.79091ZM11.4928 15.7352C10.1856 15.7352 9.37613 13.7854 9.37613 11.9791C9.37613 9.92064 10.3847 8.04583 11.4928 8.04583C12.6009 8.04583 13.6095 9.92064 13.6095 11.9791C13.6095 14.1554 12.7199 15.7352 11.4928 15.7352ZM11.4928 8.18684C10.4584 8.18684 9.51709 9.9944 9.51709 11.9791C9.51709 13.7181 10.2722 15.5942 11.4928 15.5942C12.6371 15.5942 13.4685 14.0739 13.4685 11.9791C13.4685 9.9944 12.5272 8.18684 11.4928 8.18684Z" fill="black"/>
<path d="M11.6925 2.47241H11.2969V16.9844H11.6925V2.47241Z" fill="black"/>
<path d="M11.7632 17.0553H11.2266V2.40234H11.7632V17.0553ZM11.3675 16.9143H11.6223V2.54338H11.3675V16.9143Z" fill="black"/>
<path d="M20.8152 11.6918H2.26172V12.0877H20.8152V11.6918Z" fill="black"/>
<path d="M20.8858 12.1597H2.19141V11.6228H20.8858V12.1597ZM2.33234 12.0187H20.7448V11.7638H2.33234V12.0187Z" fill="black"/>
<path d="M8.54297 5.27654V4.88066C10.2704 4.88066 11.3023 3.84814 11.3023 2.11954V1.4519H11.6979V2.11954C11.6966 4.0668 10.489 5.27654 8.54297 5.27654Z" fill="black"/>
<path d="M8.53984 5.3485H8.46875V4.81156H8.53984C10.2234 4.81156 11.228 3.80492 11.228 2.12032V1.38281H11.7646V2.12032C11.7646 4.11157 10.5285 5.3485 8.53984 5.3485ZM8.60967 4.9513V5.20618C10.4703 5.17772 11.6224 4.0003 11.6224 2.11902V1.52255H11.3677V2.11902C11.369 3.86962 10.3397 4.92411 8.60967 4.9513Z" fill="black"/>
<path d="M14.4505 5.27654C12.5045 5.27654 11.2969 4.0668 11.2969 2.11954V1.4519H11.6925V2.11954C11.6925 3.84943 12.7244 4.88066 14.4505 4.88066V5.27654Z" fill="black"/>
<path d="M14.5224 5.3485H14.4513C12.4627 5.3485 11.2266 4.11157 11.2266 2.12032V1.38281H11.7632V2.12032C11.7632 3.80492 12.7678 4.81156 14.4513 4.81156H14.5224V5.3485ZM11.3688 1.52384V2.12032C11.3688 4.00159 12.5208 5.17772 14.3815 5.20749V4.95257C12.6528 4.92411 11.6222 3.87091 11.6222 2.12032V1.52384H11.3688Z" fill="black"/>
<path d="M8.54297 19.8577V19.4618C10.2704 19.4618 11.3023 18.4293 11.3023 16.7007V16.0331H11.6979V16.7007C11.6966 18.648 10.489 19.8577 8.54297 19.8577Z" fill="black"/>
<path d="M8.53984 19.9286H8.46875V19.3916H8.53984C10.2234 19.3916 11.228 18.385 11.228 16.7004V15.9629H11.7646V16.7004C11.7646 18.6917 10.5285 19.9286 8.53984 19.9286ZM8.60967 19.5313V19.7863C10.4703 19.7578 11.6224 18.5804 11.6224 16.6991V16.1026H11.3677V16.6991C11.369 18.4497 10.3397 19.5042 8.60967 19.5313Z" fill="black"/>
<path d="M14.4505 19.8577C12.5045 19.8577 11.2969 18.648 11.2969 16.7007V16.0331H11.6925V16.7007C11.6925 18.4306 12.7244 19.4618 14.4505 19.4618V19.8577Z" fill="black"/>
<path d="M14.5224 19.9286H14.4513C12.4627 19.9286 11.2266 18.6917 11.2266 16.7004V15.9629H11.7632V16.7004C11.7632 18.385 12.7678 19.3916 14.4513 19.3916H14.5224V19.9286ZM11.3688 16.1039V16.7004C11.3688 18.5817 12.5208 19.7578 14.3815 19.7875V19.5327C12.6528 19.5042 11.6222 18.451 11.6222 16.7004V16.1039H11.3688Z" fill="black"/>
</g>
<path d="M29.3867 3.9032H35.7008C37.2197 3.9032 38.3825 4.28442 39.1136 4.94677C39.8825 5.64761 40.2386 6.51015 40.2386 7.63461C40.2386 9.09791 39.3522 10.0413 38.0303 10.5034V10.5651C39.587 11.0271 40.6552 12.3518 40.6552 14.1154C40.6552 15.4594 40.2423 16.3797 39.4128 17.1036C38.6022 17.8276 37.3599 18.2473 35.8637 18.2473H29.3867V3.9032ZM35.3448 9.67939C36.5872 9.67939 37.4356 9.07863 37.4356 7.95421C37.4356 6.8914 36.6667 6.26757 35.4054 6.26757H32.2464V9.6755H35.3448V9.67939ZM32.2464 15.8368H35.5418C36.9243 15.8368 37.75 15.055 37.75 13.8921C37.75 12.5289 36.7652 11.8281 35.4622 11.8281H32.2464V15.8368Z" fill="#010101"/>
<path d="M48.3012 18.2417V17.0403H48.2407C47.5514 17.9837 46.7597 18.5228 45.3394 18.5228C43.0894 18.5228 41.8281 17.0595 41.8281 14.8145V7.95239H44.4909V14.3485C44.4909 15.55 45.025 16.2123 46.1689 16.2123C47.4304 16.2123 48.1991 15.2496 48.1991 13.8865V7.95239H50.8806V18.2417H48.3012Z" fill="#010101"/>
<path d="M51.793 14.9106H54.2776C54.4555 16.0929 55.2852 16.6166 56.4858 16.6166C57.6678 16.6166 58.3421 16.1545 58.3421 15.4344C58.3421 14.4524 57.0616 14.3523 55.6791 14.0712C53.8648 13.7092 52.0884 13.2086 52.0884 10.9636C52.0884 8.73786 53.9027 7.67505 56.2093 7.67505C58.8723 7.67505 60.3533 9.01897 60.5503 11.083H58.1221C58.0047 9.98169 57.3155 9.57736 56.1678 9.57736C55.1222 9.57736 54.4329 9.97781 54.4329 10.721C54.4329 11.6028 55.7739 11.6837 57.2129 11.9841C58.9098 12.3461 60.7851 12.8274 60.7851 15.2341C60.7851 17.2981 59.0503 18.5419 56.5237 18.5419C53.5883 18.5419 51.9483 17.0979 51.793 14.9106Z" fill="#010101"/>
<path d="M61.793 7.95239H64.4745V18.2417H61.793V7.95239Z" fill="#010101"/>
<path d="M68.6407 9.35962H68.7012C69.3905 8.25828 70.3186 7.67297 71.7012 7.67297C73.7919 7.67297 75.1934 9.27873 75.1934 11.5237V18.2433H72.5119V11.9281C72.5119 10.8268 71.8791 10.0412 70.7581 10.0412C69.5761 10.0412 68.7053 11.0039 68.7053 12.4094V18.2433H66.0156V7.95409H68.6407V9.35962Z" fill="#010101"/>
<path d="M76.1523 13.0872C76.1523 10.0373 78.1826 7.67297 81.1446 7.67297C84.3984 7.67297 86.1368 10.1991 86.1368 13.8688H78.8C78.9969 15.4515 79.8641 16.4373 81.3831 16.4373C82.4287 16.4373 83.042 15.956 83.3379 15.1743H85.9814C85.6066 16.9995 84.0081 18.5437 81.4061 18.5437C78.0462 18.5437 76.1523 16.1562 76.1523 13.0872ZM78.8339 11.9858H83.3302C83.2507 10.6804 82.402 9.77935 81.1789 9.77935C79.762 9.77935 79.0728 10.6419 78.8339 11.9858Z" fill="#010101"/>
<path d="M86.5469 14.9106H89.0315C89.2094 16.0929 90.0391 16.6166 91.2397 16.6166C92.4217 16.6166 93.0955 16.1545 93.0955 15.4344C93.0955 14.4524 91.8155 14.3523 90.433 14.0712C88.6186 13.7092 86.8423 13.2086 86.8423 10.9636C86.8423 8.73786 88.6566 7.67505 90.9632 7.67505C93.6262 7.67505 95.1068 9.01897 95.3042 11.083H92.876C92.7586 9.98169 92.0694 9.57736 90.9217 9.57736C89.8761 9.57736 89.1868 9.97781 89.1868 10.721C89.1868 11.6028 90.5278 11.6837 91.9668 11.9841C93.6637 12.3461 95.539 12.8274 95.539 15.2341C95.539 17.2981 93.8042 18.5419 91.2776 18.5419C88.3422 18.5419 86.7059 17.0979 86.5469 14.9106Z" fill="#010101"/>
<path d="M95.9141 14.9106H98.3991C98.5771 16.0929 99.4063 16.6166 100.607 16.6166C101.789 16.6166 102.463 16.1545 102.463 15.4344C102.463 14.4524 101.183 14.3523 99.8006 14.0712C97.9863 13.7092 96.2095 13.2086 96.2095 10.9636C96.2095 8.73786 98.0238 7.67505 100.331 7.67505C102.993 7.67505 104.474 9.01897 104.671 11.083H102.244C102.126 9.98169 101.437 9.57736 100.289 9.57736C99.2437 9.57736 98.554 9.97781 98.554 10.721C98.554 11.6028 99.895 11.6837 101.334 11.9841C103.031 12.3461 104.906 12.8274 104.906 15.2341C104.906 17.2981 103.171 18.5419 100.645 18.5419C97.7094 18.5419 96.0735 17.0979 95.9141 14.9106Z" fill="#010101"/>
<path d="M108.641 11.122C108.641 6.87076 111.243 3.62073 115.405 3.62073C118.879 3.62073 120.928 5.72711 121.224 8.45344H118.383C118.125 7.00943 117.061 6.06595 115.405 6.06595C112.803 6.06595 111.557 8.27246 111.557 11.1182C111.557 14.0448 113.057 16.1511 115.424 16.1511C117.102 16.1511 118.284 15.1269 118.462 13.625H121.265C121.186 14.8881 120.655 16.1127 119.708 17.0137C118.743 17.9379 117.379 18.5386 115.428 18.5386C111.459 18.5425 108.641 15.4349 108.641 11.122Z" fill="#010101"/>
<path d="M122.371 3.90222H125.053V18.2425H122.371V3.90222Z" fill="#010101"/>
<path d="M132.682 17.0981H132.644C132.133 17.8798 131.402 18.4805 129.667 18.4805C127.595 18.4805 126.137 17.3792 126.137 15.3306C126.137 13.0664 127.951 12.3424 130.201 12.0228C131.879 11.7841 132.648 11.6416 132.648 10.8599C132.648 10.1166 132.076 9.63531 130.951 9.63531C129.69 9.63531 129.076 10.0974 128.996 11.0794H126.61C126.69 9.27335 128.012 7.69067 130.97 7.69067C134.007 7.69067 135.231 9.07313 135.231 11.4799V16.7131C135.231 17.4947 135.348 17.9568 135.587 18.1378V18.238H133.004C132.837 18.0416 132.739 17.5602 132.682 17.0981ZM132.701 14.6105V13.0664C132.227 13.3475 131.496 13.5092 130.826 13.6671C129.424 13.9867 128.735 14.3102 128.735 15.2728C128.735 16.2356 129.367 16.5783 130.315 16.5783C131.853 16.5783 132.701 15.6156 132.701 14.6105Z" fill="#010101"/>
<path d="M136.098 14.9106H138.583C138.761 16.0929 139.59 16.6166 140.791 16.6166C141.972 16.6166 142.647 16.1545 142.647 15.4344C142.647 14.4524 141.366 14.3523 139.984 14.0712C138.169 13.7092 136.393 13.2086 136.393 10.9636C136.393 8.73786 138.207 7.67505 140.514 7.67505C143.177 7.67505 144.658 9.01897 144.855 11.083H142.427C142.31 9.98169 141.62 9.57736 140.472 9.57736C139.427 9.57736 138.738 9.97781 138.738 10.721C138.738 11.6028 140.079 11.6837 141.518 11.9841C143.215 12.3461 145.09 12.8274 145.09 15.2341C145.09 17.2981 143.355 18.5419 140.829 18.5419C137.889 18.5419 136.253 17.0979 136.098 14.9106Z" fill="#010101"/>
<path d="M145.465 14.9106H147.949C148.127 16.0929 148.957 16.6166 150.158 16.6166C151.339 16.6166 152.014 16.1545 152.014 15.4344C152.014 14.4524 150.733 14.3523 149.351 14.0712C147.537 13.7092 145.76 13.2086 145.76 10.9636C145.76 8.73786 147.575 7.67505 149.881 7.67505C152.544 7.67505 154.025 9.01897 154.222 11.083H151.794C151.677 9.98169 150.987 9.57736 149.84 9.57736C148.794 9.57736 148.105 9.97781 148.105 10.721C148.105 11.6028 149.445 11.6837 150.885 11.9841C152.582 12.3461 154.457 12.8274 154.457 15.2341C154.457 17.2981 152.722 18.5419 150.196 18.5419C147.26 18.5419 145.624 17.0979 145.465 14.9106Z" fill="#010101"/>
<path d="M63.1493 7.08281C63.965 7.08281 64.6267 6.41047 64.6267 5.58103C64.6267 4.7516 63.965 4.07922 63.1493 4.07922C62.3336 4.07922 61.6719 4.7516 61.6719 5.58103C61.6719 6.41047 62.3336 7.08281 63.1493 7.08281Z" fill="#010101"/>
</svg>
