<svg width="387" height="287" viewBox="0 0 387 287" fill="none" xmlns="http://www.w3.org/2000/svg">
<g clip-path="url(#clip0_14_259)">
<g clip-path="url(#clip1_14_259)">
<path d="M0.459961 17.92C0.459961 11.6474 0.459961 8.51112 1.68069 6.11531C2.75447 4.00789 4.46785 2.29451 6.57527 1.22073C8.97108 0 12.1074 0 18.38 0H409.54C415.813 0 418.949 0 421.345 1.22073C423.452 2.29451 425.165 4.00789 426.239 6.11531C427.46 8.51112 427.46 11.6474 427.46 17.92V323H0.459961V17.92Z" fill="white"/>
<path d="M33.0017 67.6172V32.6989H46.5201C53.5536 32.6989 57.7937 37.0387 57.7937 43.2243C57.7937 49.4098 53.5536 53.7497 46.5201 53.7497H38.1896V67.6172H33.0017ZM38.1896 49.2602H46.3704C50.8599 49.2602 52.6059 46.4168 52.6059 43.2243C52.6059 40.0317 50.8599 37.1884 46.3704 37.1884H38.1896V49.2602ZM75.6419 46.6662H72.0004C67.4111 46.6662 65.9146 50.7567 65.9146 56.2438V67.6172H61.0759V42.476H65.9146V47.3147C67.0619 43.9725 69.0573 42.476 72.599 42.476H75.6419V46.6662ZM89.0897 68.0163C81.5573 68.0163 76.12 62.579 76.12 55.0466C76.12 47.5142 81.5573 42.0769 89.0897 42.0769C96.6221 42.0769 102.01 47.5142 102.01 55.0466C102.01 62.579 96.6221 68.0163 89.0897 68.0163ZM89.0897 63.7762C93.8287 63.7762 97.0711 60.1846 97.0711 55.0466C97.0711 49.9086 93.8287 46.317 89.0897 46.317C84.3009 46.317 81.0585 49.9086 81.0585 55.0466C81.0585 60.1846 84.3009 63.7762 89.0897 63.7762ZM108.009 67.6172V46.6662H102.871V42.476H108.009V40.0317C108.009 35.0933 111.251 31.9506 116.289 31.9506H120.43V36.1408H116.639C114.344 36.1408 112.847 37.6872 112.847 40.1814V42.476H120.43V46.6662H112.847V67.6172H108.009ZM123.304 31.9506H128.692V38.0364H123.304V31.9506ZM123.604 67.6172V42.476H128.442V67.6172H123.604ZM136.46 34.5944H141.299V42.476H148.731V46.6662H141.299V59.2368C141.299 61.9305 142.745 63.427 145.189 63.427H148.731V67.6172H144.79C139.702 67.6172 136.46 64.5245 136.46 59.3865V46.6662H131.322V42.476H136.46V34.5944ZM61.8343 115.617H56.397L52.9052 111.826C50.1117 114.819 46.57 116.016 43.0282 116.016C36.294 116.016 31.9042 112.275 31.9042 106.04C31.9042 101.001 35.2464 98.5072 38.9378 96.5618C36.7928 94.1175 34.997 91.4238 34.997 88.78C34.997 83.7417 38.6884 80.2998 44.0259 80.2998C49.3136 80.2998 53.0049 83.642 53.0049 88.4807C53.0049 93.6187 49.5131 96.1128 45.7718 98.0583L52.4562 105.391L54.252 102.947C56.4968 99.3553 58.8413 98.8564 61.3853 98.8564V103.446C59.2404 103.446 57.5443 104.793 56.5965 106.339L55.2996 108.484L61.8343 115.617ZM39.4865 88.7301C39.4865 90.6755 41.1826 92.8704 42.7289 94.6662C45.9215 93.1198 48.5653 91.4737 48.5653 88.4308C48.5653 85.8867 46.7196 84.1408 44.0259 84.1408C41.3322 84.1408 39.4865 86.0364 39.4865 88.7301ZM43.0282 111.726C45.273 111.726 47.8669 110.978 50.0119 108.683L41.9807 99.904C38.9877 101.45 36.5933 103.097 36.5933 106.09C36.5933 109.631 38.9877 111.726 43.0282 111.726ZM76.1158 115.617V80.6989H81.3036V111.028H98.3139V115.617H76.1158ZM112.595 116.016C105.063 116.016 99.6257 110.579 99.6257 103.047C99.6257 95.5142 105.063 90.0769 112.595 90.0769C120.128 90.0769 125.515 95.5142 125.515 103.047C125.515 110.579 120.128 116.016 112.595 116.016ZM112.595 111.776C117.334 111.776 120.577 108.185 120.577 103.047C120.577 97.9086 117.334 94.317 112.595 94.317C107.807 94.317 104.564 97.9086 104.564 103.047C104.564 108.185 107.807 111.776 112.595 111.776ZM137.84 116.016C131.954 116.016 128.013 112.724 127.664 107.436H132.203C132.503 110.33 134.598 111.976 137.84 111.976C140.733 111.976 142.579 110.429 142.579 108.584C142.579 101.899 128.313 108.035 128.313 97.31C128.313 92.9702 132.004 90.0769 137.242 90.0769C142.928 90.0769 146.819 93.2196 147.069 97.9585H142.529C142.18 95.0653 139.387 93.918 137.242 93.918C134.648 93.918 132.902 95.2149 132.902 97.1604C132.902 103.396 147.268 97.0107 147.268 108.484C147.268 113.073 143.527 116.016 137.84 116.016ZM160.128 116.016C154.242 116.016 150.301 112.724 149.952 107.436H154.491C154.79 110.33 156.886 111.976 160.128 111.976C163.021 111.976 164.867 110.429 164.867 108.584C164.867 101.899 150.6 108.035 150.6 97.31C150.6 92.9702 154.292 90.0769 159.529 90.0769C165.216 90.0769 169.107 93.2196 169.356 97.9585H164.817C164.468 95.0653 161.674 93.918 159.529 93.918C156.935 93.918 155.19 95.2149 155.19 97.1604C155.19 103.396 169.556 97.0107 169.556 108.484C169.556 113.073 165.815 116.016 160.128 116.016Z" fill="#252630"/>
<rect x="29.46" y="142.073" width="81.5574" height="38" rx="5.78182" fill="#18171E"/>
<g opacity="0.5">
<path d="M51.0762 164.012C51.1355 164.071 51.1825 164.142 51.2146 164.219C51.2466 164.296 51.2631 164.379 51.2631 164.463C51.2631 164.546 51.2466 164.629 51.2146 164.706C51.1825 164.784 51.1355 164.854 51.0762 164.913C51.0164 164.972 49.5934 166.37 47.2373 166.37C45.452 166.37 44.0942 165.445 43.2124 164.576V165.309C43.2124 165.478 43.1455 165.64 43.0263 165.759C42.9071 165.878 42.7455 165.945 42.5769 165.945C42.4084 165.945 42.2467 165.878 42.1275 165.759C42.0084 165.64 41.9414 165.478 41.9414 165.309V162.767C41.9414 162.599 42.0084 162.437 42.1275 162.318C42.2467 162.199 42.4084 162.132 42.5769 162.132H45.1189C45.2875 162.132 45.4491 162.199 45.5683 162.318C45.6875 162.437 45.7544 162.599 45.7544 162.767C45.7544 162.936 45.6875 163.098 45.5683 163.217C45.4491 163.336 45.2875 163.403 45.1189 163.403H43.8543C44.548 164.161 45.7121 165.098 47.2373 165.098C49.0712 165.098 50.1664 164.024 50.177 164.012C50.236 163.953 50.3061 163.906 50.3832 163.874C50.4604 163.843 50.5431 163.826 50.6266 163.826C50.7101 163.826 50.7928 163.843 50.87 163.874C50.9471 163.906 51.0172 163.953 51.0762 164.012ZM51.8976 156.201C51.7291 156.201 51.5674 156.267 51.4482 156.387C51.3291 156.506 51.2621 156.667 51.2621 156.836V157.57C50.3803 156.702 49.0225 155.777 47.2373 155.777C44.8827 155.777 43.4581 157.174 43.3983 157.234C43.2789 157.353 43.2118 157.515 43.2118 157.684C43.2118 157.853 43.2789 158.015 43.3983 158.134C43.5177 158.253 43.6796 158.32 43.8484 158.32C44.0173 158.32 44.1792 158.253 44.2986 158.134C44.3081 158.122 45.4033 157.048 47.2373 157.048C48.7625 157.048 49.9265 157.984 50.6203 158.743H49.3556C49.1871 158.743 49.0254 158.809 48.9062 158.929C48.7871 159.048 48.7201 159.209 48.7201 159.378C48.7201 159.547 48.7871 159.708 48.9062 159.827C49.0254 159.947 49.1871 160.014 49.3556 160.014H51.8976C52.0662 160.014 52.2278 159.947 52.347 159.827C52.4662 159.708 52.5331 159.547 52.5331 159.378V156.836C52.5331 156.667 52.4662 156.506 52.347 156.387C52.2278 156.267 52.0662 156.201 51.8976 156.201Z" fill="white"/>
</g>
<path d="M61.9444 166.073V157.304H67.4313V158.268H63.0092V161.062H66.6045V162.026H63.0092V165.108H67.5691V166.073H61.9444ZM74.2888 166.073H73.224L71.4451 163.53L69.6662 166.073H68.6014L70.8939 162.753L68.8019 159.759H69.9168L71.4451 161.964L72.9734 159.759H74.0884L71.9963 162.753L74.2888 166.073ZM75.659 168.628V159.759H76.6612V160.799C77.0495 160.11 77.8638 159.659 78.7657 159.659C80.72 159.659 81.7973 161.074 81.7973 162.916C81.7973 164.757 80.6949 166.173 78.7407 166.173C77.8512 166.173 77.037 165.735 76.6612 165.058V168.628H75.659ZM78.6655 165.271C79.9308 165.271 80.7576 164.344 80.7576 162.916C80.7576 161.488 79.9308 160.561 78.6655 160.561C77.4003 160.561 76.5735 161.488 76.5735 162.916C76.5735 164.344 77.4003 165.271 78.6655 165.271ZM86.228 166.173C84.3614 166.173 83.021 164.807 83.021 162.916C83.021 161.012 84.3614 159.659 86.228 159.659C88.1071 159.659 89.4475 161.012 89.4475 162.916C89.4475 164.807 88.1071 166.173 86.228 166.173ZM86.228 165.271C87.5308 165.271 88.4203 164.294 88.4203 162.916C88.4203 161.538 87.5308 160.561 86.228 160.561C84.9377 160.561 84.0482 161.538 84.0482 162.916C84.0482 164.294 84.9377 165.271 86.228 165.271ZM94.5575 160.648H93.6806C92.4029 160.648 92.0396 161.801 92.0396 163.292V166.073H91.0374V159.759H92.0396V161.037C92.3026 160.172 92.8288 159.759 93.7558 159.759H94.5575V160.648ZM96.8104 157.742H97.8126V159.759H99.7543V160.648H97.8126V164.068C97.8126 164.77 98.2134 165.183 98.8273 165.183H99.7543V166.073H98.7897C97.5871 166.073 96.8104 165.321 96.8104 164.093V160.648H95.495V159.759H96.8104V157.742Z" fill="white"/>
<path d="M474.333 184.851L526.813 139.451V325.631H144.456L203.601 293.977L251.916 260.239L315.226 240.663L356.46 209.841L414.355 201.095L474.333 184.851Z" fill="#DBEAD9"/>
<circle cx="356.876" cy="210.258" r="9.99626" fill="#18171E" stroke="white" stroke-width="6.66417"/>
<circle cx="315.226" cy="240.247" r="9.99626" fill="#18171E" stroke="white" stroke-width="6.66417"/>
<circle cx="252.749" cy="259.406" r="9.99626" fill="#18171E" stroke="white" stroke-width="6.66417"/>
<circle cx="201.03" cy="295.72" r="9.99626" fill="#18171E" stroke="white" stroke-width="6.66417"/>
</g>
</g>
<defs>
<clipPath id="clip0_14_259">
<path d="M0 25.6C0 16.6392 0 12.1587 1.7439 8.73615C3.27787 5.72556 5.72556 3.27787 8.73615 1.7439C12.1587 0 16.6392 0 25.6 0H387V287H0V25.6Z" fill="white"/>
</clipPath>
<clipPath id="clip1_14_259">
<path d="M0.459961 17.92C0.459961 11.6474 0.459961 8.51112 1.68069 6.11531C2.75447 4.00789 4.46785 2.29451 6.57527 1.22073C8.97108 0 12.1074 0 18.38 0H409.54C415.813 0 418.949 0 421.345 1.22073C423.452 2.29451 425.165 4.00789 426.239 6.11531C427.46 8.51112 427.46 11.6474 427.46 17.92V323H0.459961V17.92Z" fill="white"/>
</clipPath>
</defs>
</svg>
