<svg width="311" height="155" viewBox="0 0 311 155" fill="none" xmlns="http://www.w3.org/2000/svg">
<g clip-path="url(#clip0_13_162)">
<path d="M0 32C0 16.9151 0 9.37258 4.68629 4.68629C9.37258 0 16.9151 0 32 0H311V155H0V32Z" fill="white"/>
<path d="M27.2302 49.5037V38.1083H23.0991V35.5338H34.3549V38.1083H30.2238V49.5037H27.2302ZM43.7159 39.4454L40.0638 49.4638L38.6469 53.575H35.9926L37.4694 49.4239L33.8173 39.4454H36.6512L38.7666 45.9314L40.8621 39.4454H43.7159ZM45.0094 53.575V39.4454H47.7834V40.543C48.3821 39.7647 49.38 39.2857 50.6772 39.2857C53.4911 39.2857 55.2873 41.3413 55.2873 44.4746C55.2873 47.6078 53.3315 49.6634 50.4377 49.6634C49.3002 49.6634 48.3223 49.2842 47.7834 48.6057V53.575H45.0094ZM50.0984 47.2685C51.5553 47.2685 52.5532 46.1509 52.5532 44.4746C52.5532 42.7782 51.5553 41.6606 50.0984 41.6606C48.6017 41.6606 47.6238 42.7782 47.6238 44.4746C47.6238 46.1509 48.6017 47.2685 50.0984 47.2685ZM56.7168 35.0748H59.6705V38.0085H56.7168V35.0748ZM56.7967 49.5037V39.4454H59.5907V49.5037H56.7967ZM66.2999 49.6634C63.1867 49.6634 61.1111 47.4082 61.1111 44.4746C61.1111 41.5409 63.1867 39.2857 66.2999 39.2857C68.9343 39.2857 71.0298 40.8823 71.2094 43.2173H68.4154C68.2557 42.3192 67.3976 41.6606 66.3798 41.6606C64.883 41.6606 64.0049 42.8381 64.0049 44.4746C64.0049 46.111 64.903 47.2685 66.4197 47.2685C67.4375 47.2685 68.2557 46.6499 68.4553 45.7518H71.2892C70.9898 47.987 68.9143 49.6634 66.2999 49.6634ZM76.8319 39.2857C79.3665 39.2857 81.2225 40.7626 81.2225 43.0377V49.5037H78.4684V48.1067C78.1291 49.0447 77.0116 49.6634 75.6345 49.6634C73.6787 49.6634 72.3416 48.3662 72.3416 46.6499C72.3416 44.6741 73.8184 43.4767 76.0137 43.4767H77.71C78.209 43.4767 78.4684 43.1574 78.4684 42.7383C78.4684 41.9001 77.8098 41.3214 76.6723 41.3214C75.4549 41.3214 74.8362 42.0797 74.7963 42.9179H72.3217C72.4414 40.9023 74.0779 39.2857 76.8319 39.2857ZM76.333 47.6477C77.6901 47.6477 78.4684 46.6499 78.4684 45.3726V45.2329H76.4328C75.5946 45.2329 74.9959 45.7518 74.9959 46.5301C74.9959 47.1887 75.5547 47.6477 76.333 47.6477ZM83.2863 49.5037V35.0748H86.0603V49.5037H83.2863ZM88.412 49.5037V35.0748H91.186V49.5037H88.412ZM102.379 39.4454L98.7265 49.4638L97.3095 53.575H94.6553L96.1321 49.4239L92.4799 39.4454H95.3138L97.4293 45.9314L99.5248 39.4454H102.379ZM107.882 53.575V39.4454H110.656V40.543C111.254 39.7647 112.252 39.2857 113.55 39.2857C116.363 39.2857 118.16 41.3413 118.16 44.4746C118.16 47.6078 116.204 49.6634 113.31 49.6634C112.173 49.6634 111.195 49.2842 110.656 48.6057V53.575H107.882ZM112.971 47.2685C114.428 47.2685 115.426 46.1509 115.426 44.4746C115.426 42.7782 114.428 41.6606 112.971 41.6606C111.474 41.6606 110.496 42.7782 110.496 44.4746C110.496 46.1509 111.474 47.2685 112.971 47.2685ZM123.801 39.2857C126.336 39.2857 128.192 40.7626 128.192 43.0377V49.5037H125.438V48.1067C125.098 49.0447 123.981 49.6634 122.604 49.6634C120.648 49.6634 119.311 48.3662 119.311 46.6499C119.311 44.6741 120.788 43.4767 122.983 43.4767H124.679C125.178 43.4767 125.438 43.1574 125.438 42.7383C125.438 41.9001 124.779 41.3214 123.641 41.3214C122.424 41.3214 121.805 42.0797 121.765 42.9179H119.291C119.411 40.9023 121.047 39.2857 123.801 39.2857ZM123.302 47.6477C124.659 47.6477 125.438 46.6499 125.438 45.3726V45.2329H123.402C122.564 45.2329 121.965 45.7518 121.965 46.5301C121.965 47.1887 122.524 47.6477 123.302 47.6477ZM138.629 39.4454L134.977 49.4638L133.56 53.575H130.905L132.382 49.4239L128.73 39.4454H131.564L133.679 45.9314L135.775 39.4454H138.629ZM143.142 49.6634C140.687 49.6634 139.011 48.2863 138.911 46.111H141.306C141.406 47.0091 142.104 47.5679 143.142 47.5679C144 47.5679 144.599 47.1488 144.599 46.59C144.599 44.5344 139.191 46.5501 139.191 42.3192C139.191 40.543 140.727 39.2857 142.783 39.2857C145.198 39.2857 146.834 40.5829 146.934 42.5587H144.519C144.399 41.7005 143.621 41.2415 142.863 41.2415C142.084 41.2415 141.546 41.5808 141.546 42.2194C141.546 44.275 147.054 41.94 147.054 46.4902C147.054 48.4061 145.497 49.6634 143.142 49.6634ZM155.295 49.5037L152.022 39.4454H154.816L156.512 45.652L158.288 39.4454H160.823L162.619 45.652L164.316 39.4454H167.09L163.837 49.5037H161.402L159.566 43.2372L157.71 49.5037H155.295ZM168.254 35.0748H171.208V38.0085H168.254V35.0748ZM168.334 49.5037V39.4454H171.128V49.5037H168.334ZM174.464 36.4718H177.238V39.4454H179.932V41.7604H177.238V45.7318C177.238 46.7097 177.757 47.1688 178.655 47.1688H179.932V49.5037H178.276C175.961 49.5037 174.464 48.1866 174.464 45.8516V41.7604H172.528V39.4454H174.464V36.4718ZM182.194 49.5037V35.0748H184.968V40.8424C185.547 39.8645 186.645 39.2857 188.042 39.2857C190.297 39.2857 191.774 40.9222 191.774 43.2372V49.5037H189V43.8559C189 42.6385 188.201 41.7604 187.044 41.7604C185.826 41.7604 184.968 42.6984 184.968 43.9956V49.5037H182.194ZM193.726 35.0748H196.68V38.0085H193.726V35.0748ZM193.806 49.5037V39.4454H196.6V49.5037H193.806ZM198.64 49.5037V39.4454H201.433V40.8424C201.992 39.8645 203.11 39.2857 204.487 39.2857C206.762 39.2857 208.239 40.9222 208.239 43.2372V49.5037H205.445V43.8559C205.445 42.6385 204.667 41.7604 203.509 41.7604C202.292 41.7604 201.433 42.6984 201.433 43.9956V49.5037H198.64Z" fill="#18171E"/>
<path d="M30.1085 100.487C30.1484 96.2647 30.6661 92.2022 34.4498 86.0687L40.8621 75.6735H24.6122V72.6068H44.7255V75.3947L37.0785 88.0203C33.932 93.2776 33.5338 96.8223 33.5338 100.487H30.1085ZM65.3051 100.805C59.0521 100.805 55.6269 96.3045 55.6269 90.4498C55.6269 84.5951 59.0521 80.0945 65.3051 80.0945C68.133 80.0945 70.7616 81.5283 71.9565 83.679V72.1687H75.1427V100.487H71.9565V97.1808C70.7616 99.3713 68.133 100.805 65.3051 100.805ZM65.5839 97.9375C69.6066 97.9375 72.2353 94.9902 72.2353 90.4498C72.2353 85.9094 69.6066 82.9621 65.5839 82.9621C61.5613 82.9621 58.8928 85.9094 58.8928 90.4498C58.8928 94.9902 61.5613 97.9375 65.5839 97.9375ZM87.9148 80.0945C93.1323 80.0945 96.3982 83.0816 96.3982 87.5423V100.487H93.212V97.0215C92.1366 99.3315 89.4681 100.805 86.3615 100.805C82.1397 100.805 79.3916 98.4154 79.3916 94.7512C79.3916 90.9277 82.538 88.4982 87.397 88.4982H91.9375C92.8137 88.4982 93.212 88.0601 93.212 87.4229C93.212 84.6747 91.2604 82.8028 87.8352 82.8028C84.8879 82.8028 82.5778 84.6349 82.4185 86.8254H79.3916C79.75 82.9621 83.4142 80.0945 87.9148 80.0945ZM86.8394 98.0968C90.8621 98.0968 93.212 95.5876 93.212 91.4455V90.9277H87.5962C84.6091 90.9277 82.6575 92.3616 82.6575 94.7114C82.6575 96.7825 84.2904 98.0968 86.8394 98.0968ZM115.984 80.4131L109.612 97.7384L105.948 108.611H102.881L105.43 100.805L97.9422 80.4131H101.248L106.943 96.3444L112.639 80.4131H115.984ZM125.333 100.805C120.673 100.805 117.646 98.2163 117.328 94.0343H120.394C120.673 96.6232 122.426 98.0172 125.333 98.0172C127.842 98.0172 129.515 96.6232 129.515 94.9902C129.515 89.016 117.845 94.3928 117.845 85.7102C117.845 82.3248 120.713 80.0945 124.935 80.0945C129.356 80.0945 132.343 82.524 132.582 86.228H129.475C129.196 83.679 126.687 82.8028 124.855 82.8028C122.505 82.8028 120.952 83.918 120.952 85.6704C120.952 91.0871 132.701 85.7102 132.701 94.9106C132.701 98.4951 129.754 100.805 125.333 100.805Z" fill="#252630"/>
<path d="M31.7684 132.487L30.6189 129.469H25.6376L24.4722 132.487H23.0512L27.5056 121.311H28.735L33.1894 132.487H31.7684ZM26.1006 128.256H30.1399L28.1283 122.987L26.1006 128.256ZM34.7446 132.487V121.135H36.0219V132.487H34.7446ZM40.1846 132.487L37.7418 124.44H39.0191L40.7912 130.826L42.771 124.44H44.0163L45.9641 130.826L47.7363 124.44H49.0295L46.5868 132.487H45.3574L43.3777 126.084L41.4139 132.487H40.1846ZM53.494 124.312C55.5855 124.312 56.8947 125.51 56.8947 127.298V132.487H55.6174V131.098C55.1864 132.024 54.1167 132.614 52.8713 132.614C51.179 132.614 50.0774 131.656 50.0774 130.187C50.0774 128.655 51.3386 127.681 53.2864 127.681H55.1065C55.4578 127.681 55.6174 127.505 55.6174 127.25C55.6174 126.148 54.8351 125.398 53.4621 125.398C52.2806 125.398 51.3546 126.132 51.2907 127.01H50.0774C50.2211 125.462 51.6899 124.312 53.494 124.312ZM53.0629 131.529C54.6755 131.529 55.6174 130.523 55.6174 128.862V128.655H53.3663C52.1689 128.655 51.3865 129.23 51.3865 130.171C51.3865 131.002 52.0411 131.529 53.0629 131.529ZM65.225 124.44L62.6705 131.385L61.2016 135.743H59.9723L60.9941 132.614L57.9926 124.44H59.3177L61.6008 130.826L63.8839 124.44H65.225ZM69.4515 132.614C67.5835 132.614 66.3701 131.576 66.2424 129.9H67.4718C67.5835 130.938 68.286 131.497 69.4515 131.497C70.4573 131.497 71.1279 130.938 71.1279 130.283C71.1279 127.888 66.45 130.044 66.45 126.563C66.45 125.206 67.5995 124.312 69.2918 124.312C71.064 124.312 72.2614 125.286 72.3572 126.771H71.1119C71.0002 125.749 69.9943 125.398 69.2599 125.398C68.3179 125.398 67.6953 125.845 67.6953 126.547C67.6953 128.719 72.4051 126.563 72.4051 130.251C72.4051 131.688 71.2237 132.614 69.4515 132.614ZM80.2763 132.487L77.8336 124.44H79.1108L80.883 130.826L82.8627 124.44H84.108L86.0559 130.826L87.828 124.44H89.1212L86.6785 132.487H85.4492L83.4694 126.084L81.5057 132.487H80.2763ZM90.6885 121.135H92.1573V122.923H90.6885V121.135ZM90.7843 132.487V124.44H92.0615V132.487H90.7843ZM95.365 121.869H96.6423V124.44H99.117V125.573H96.6423V129.932C96.6423 130.826 97.1532 131.353 97.9355 131.353H99.117V132.487H97.8876C96.3549 132.487 95.365 131.529 95.365 129.964V125.573H93.6887V124.44H95.365V121.869ZM100.998 132.487V121.135H102.275V125.989C102.69 124.871 103.696 124.312 104.925 124.312C106.745 124.312 107.927 125.605 107.927 127.569V132.487H106.649V127.777C106.649 126.404 105.851 125.478 104.638 125.478C103.265 125.478 102.275 126.579 102.275 128.144V132.487H100.998ZM110.263 121.135H111.731V122.923H110.263V121.135ZM110.358 132.487V124.44H111.636V132.487H110.358ZM114.061 132.487V124.44H115.338V125.989C115.753 124.871 116.759 124.312 117.989 124.312C119.809 124.312 120.99 125.605 120.99 127.569V132.487H119.713V127.777C119.713 126.404 118.915 125.478 117.701 125.478C116.328 125.478 115.338 126.579 115.338 128.144V132.487H114.061ZM130.964 132.614C128.457 132.614 127.084 130.81 127.084 128.463C127.084 126.116 128.457 124.312 130.964 124.312C132.097 124.312 133.151 124.887 133.63 125.749V121.135H134.907V132.487H133.63V131.161C133.151 132.039 132.097 132.614 130.964 132.614ZM131.075 131.465C132.688 131.465 133.742 130.283 133.742 128.463C133.742 126.643 132.688 125.462 131.075 125.462C129.463 125.462 128.393 126.643 128.393 128.463C128.393 130.283 129.463 131.465 131.075 131.465ZM144.041 124.44V132.487H142.764V130.938C142.349 132.055 141.359 132.614 140.114 132.614C138.293 132.614 137.112 131.321 137.112 129.357V124.44H138.389V129.15C138.389 130.523 139.188 131.449 140.401 131.449C141.79 131.449 142.764 130.347 142.764 128.782V124.44H144.041ZM152.382 129.9H153.675C153.403 131.545 151.982 132.614 149.987 132.614C147.608 132.614 146.011 130.714 146.011 128.415C146.011 126.052 147.48 124.312 149.843 124.312C152.19 124.312 153.595 125.941 153.595 128.08C153.595 128.256 153.579 128.527 153.563 128.639H147.273C147.368 130.299 148.47 131.481 149.987 131.481C151.296 131.481 152.126 130.906 152.382 129.9ZM149.843 125.398C148.486 125.398 147.576 126.196 147.336 127.617H152.286C152.19 126.26 151.28 125.398 149.843 125.398ZM163.174 132.614C160.668 132.614 159.295 130.81 159.295 128.463C159.295 126.116 160.668 124.312 163.174 124.312C164.308 124.312 165.361 124.887 165.84 125.749V121.135H167.118V132.487H165.84V131.161C165.361 132.039 164.308 132.614 163.174 132.614ZM163.286 131.465C164.898 131.465 165.952 130.283 165.952 128.463C165.952 126.643 164.898 125.462 163.286 125.462C161.673 125.462 160.604 126.643 160.604 128.463C160.604 130.283 161.673 131.465 163.286 131.465ZM172.717 124.312C174.808 124.312 176.117 125.51 176.117 127.298V132.487H174.84V131.098C174.409 132.024 173.339 132.614 172.094 132.614C170.402 132.614 169.3 131.656 169.3 130.187C169.3 128.655 170.561 127.681 172.509 127.681H174.329C174.68 127.681 174.84 127.505 174.84 127.25C174.84 126.148 174.058 125.398 172.685 125.398C171.503 125.398 170.577 126.132 170.513 127.01H169.3C169.444 125.462 170.912 124.312 172.717 124.312ZM172.285 131.529C173.898 131.529 174.84 130.523 174.84 128.862V128.655H172.589C171.391 128.655 170.609 129.23 170.609 130.171C170.609 131.002 171.264 131.529 172.285 131.529ZM179.158 121.869H180.435V124.44H182.91V125.573H180.435V129.932C180.435 130.826 180.946 131.353 181.728 131.353H182.91V132.487H181.68C180.148 132.487 179.158 131.529 179.158 129.964V125.573H177.481V124.44H179.158V121.869ZM190.306 129.9H191.599C191.328 131.545 189.907 132.614 187.911 132.614C185.532 132.614 183.936 130.714 183.936 128.415C183.936 126.052 185.405 124.312 187.768 124.312C190.115 124.312 191.52 125.941 191.52 128.08C191.52 128.256 191.504 128.527 191.488 128.639H185.197C185.293 130.299 186.395 131.481 187.911 131.481C189.22 131.481 190.051 130.906 190.306 129.9ZM187.768 125.398C186.411 125.398 185.5 126.196 185.261 127.617H190.21C190.115 126.26 189.205 125.398 187.768 125.398Z" fill="#494757"/>
</g>
<defs>
<clipPath id="clip0_13_162">
<rect width="311" height="155" fill="white"/>
</clipPath>
</defs>
</svg>
