<svg width="114" height="31" viewBox="0 0 114 31" fill="none" xmlns="http://www.w3.org/2000/svg">
<g clip-path="url(#clip0_2921_4958)">
<path fill-rule="evenodd" clip-rule="evenodd" d="M31.7104 15.5C31.7104 24.0604 24.6118 31 15.8552 31C7.09863 31 0 24.0604 0 15.5C0 6.93959 7.09863 0 15.8552 0C24.6118 0 31.7104 6.93959 31.7104 15.5ZM23.3695 8.74179C23.3695 8.41723 23.1004 8.15411 22.7685 8.15411H8.94212C8.61012 8.15411 8.34098 8.41723 8.34098 8.74179V22.2584C8.34098 22.5829 8.61012 22.846 8.94212 22.846H11.3467C13.0067 22.846 14.3524 21.5304 14.3524 19.9077V14.0309H22.7685C23.1004 14.0309 23.3695 13.7678 23.3695 13.4432V8.74179ZM21.8668 18.4385C21.8668 16.8156 20.5211 15.5001 18.861 15.5001C17.201 15.5001 15.8553 16.8156 15.8553 18.4385C15.8553 20.0614 17.201 21.3769 18.861 21.3769C20.5211 21.3769 21.8668 20.0614 21.8668 18.4385Z" fill="white"/>
<path d="M47.328 22.6119V17.196H53.8878V14.2623H47.3088V11.7235H55.2534V8.78983H44V22.6119H47.328ZM57.6965 11.4602C58.8508 11.4602 59.4855 10.614 59.4855 9.7113C59.4855 8.86505 58.8508 8 57.6965 8C56.5231 8 55.8882 8.86505 55.8882 9.7113C55.8882 10.614 56.5231 11.4602 57.6965 11.4602ZM59.2162 22.6119V12.2313H56.1769V22.6119H59.2162ZM64.0639 22.6119V16.5378C64.0639 15.4094 65.2374 14.6008 66.3145 14.6008C67.565 14.6008 68.3729 15.3718 68.3729 16.5942V22.6119H71.4122V15.5787C71.4122 13.6041 69.7003 11.9304 67.3148 11.9304C65.8721 11.9304 64.7178 12.4005 63.8523 13.228V12.2313H61.0245V22.6119H64.0639ZM78.4143 22.8378C80.4534 22.8378 82.5695 21.9726 83.6661 19.9039L80.9151 18.7005C80.4534 19.5467 79.5686 20.1108 78.4913 20.1108C77.7026 20.1108 77.0486 19.8475 76.5293 19.321C76.0098 18.7945 75.7597 18.155 75.7597 17.384C75.7597 16.613 76.029 15.9548 76.5485 15.4282C77.0679 14.9017 77.7219 14.6384 78.5105 14.6384C79.5686 14.6384 80.4919 15.2778 80.9537 16.1993L83.5891 14.8265C83.1658 14.0366 82.5118 13.3596 81.6462 12.7766C80.7804 12.1937 79.7225 11.9116 78.472 11.9116C75.1442 11.9116 72.6434 14.2435 72.6434 17.3464C72.6434 20.4871 75.1057 22.8378 78.4143 22.8378ZM89.9178 22.8378C92.3034 22.8378 94.1307 21.7281 95.0349 20.3552L92.765 18.8321C92.1685 19.6595 91.2645 20.2424 90.0334 20.2424C88.783 20.2424 87.6094 19.5467 87.2824 18.4184H95.3619V17.5345C95.3619 14.0366 93.0535 11.9116 89.8024 11.9116C86.5323 11.9116 84.0315 14.2435 84.0315 17.3652C84.0315 20.8819 86.7246 22.8378 89.9178 22.8378ZM92.3803 16.2369H87.244C87.5517 15.165 88.5714 14.4127 89.8601 14.4127C91.1106 14.4127 92.1301 15.165 92.3803 16.2369ZM99.7671 22.6119V16.5378C99.7671 15.4094 100.94 14.6008 102.018 14.6008C103.268 14.6008 104.076 15.3718 104.076 16.5942V22.6119H107.115V15.5787C107.115 13.6041 105.403 11.9304 103.018 11.9304C101.575 11.9304 100.421 12.4005 99.5555 13.228V12.2313H96.7276V22.6119H99.7671ZM113.079 22.913L114.483 20.4683L113.656 20.0168C112.733 19.5091 112.252 19.0202 112.252 17.9857V14.8453H114.137V12.2313H112.252V9.20356L109.212 10.2191V12.2313H108.212V14.8453H109.212V18.6065C109.212 20.7691 110.867 21.7845 112.175 22.4427L113.079 22.913Z" fill="white"/>
</g>
<defs>
<clipPath id="clip0_2921_4958">
<rect width="114" height="31" fill="white"/>
</clipPath>
</defs>
</svg>
