<svg width="69" height="16" viewBox="0 0 69 16" fill="none" xmlns="http://www.w3.org/2000/svg">
<path d="M0.278 13V0.399999H8.36V2.056H2.15V5.818H7.172V7.474H2.15V13H0.278ZM13.2037 13.144C10.4857 13.144 8.52369 11.182 8.52369 8.464C8.52369 5.746 10.4857 3.784 13.2037 3.784C15.9217 3.784 17.8657 5.746 17.8657 8.464C17.8657 11.182 15.9217 13.144 13.2037 13.144ZM13.2037 11.614C14.9137 11.614 16.0837 10.318 16.0837 8.464C16.0837 6.61 14.9137 5.314 13.2037 5.314C11.4757 5.314 10.3057 6.61 10.3057 8.464C10.3057 10.318 11.4757 11.614 13.2037 11.614ZM27.621 3.928V13H25.875V11.398C25.389 12.532 24.309 13.144 22.959 13.144C20.907 13.144 19.575 11.668 19.575 9.508V3.928H21.321V9.166C21.321 10.606 22.167 11.578 23.445 11.578C24.867 11.578 25.875 10.426 25.875 8.842V3.928H27.621ZM29.8582 13V3.928H31.6042V5.53C32.0902 4.396 33.1702 3.784 34.5202 3.784C36.5722 3.784 37.9042 5.26 37.9042 7.42V13H36.1582V7.762C36.1582 6.322 35.3122 5.35 34.0342 5.35C32.6122 5.35 31.6042 6.502 31.6042 8.086V13H29.8582ZM43.9754 13.144C41.1854 13.144 39.6194 11.164 39.6194 8.464C39.6194 5.764 41.1854 3.784 43.9574 3.784C45.1994 3.784 46.2974 4.378 46.8374 5.26V0.129999H48.5834V13H46.8374V11.65C46.2974 12.55 45.1814 13.144 43.9754 13.144ZM44.1734 11.614C45.8654 11.614 46.9634 10.354 46.9634 8.464C46.9634 6.574 45.8654 5.314 44.1734 5.314C42.4994 5.314 41.4014 6.574 41.4014 8.464C41.4014 10.354 42.4994 11.614 44.1734 11.614ZM57.3616 10.048H59.1076C58.7836 11.92 57.1456 13.144 54.9136 13.144C52.1056 13.144 50.3596 10.93 50.3596 8.41C50.3596 5.872 51.9436 3.784 54.7336 3.784C57.5416 3.784 59.0356 5.782 59.0356 8.086C59.0356 8.32 59.0176 8.608 58.9996 8.77H52.0696C52.2136 10.48 53.3296 11.65 54.9136 11.65C56.2456 11.65 57.1096 11.074 57.3616 10.048ZM54.7336 5.188C53.3116 5.188 52.3936 5.98 52.1236 7.492H57.2716C57.1636 6.106 56.2276 5.188 54.7336 5.188ZM66.0693 5.44H64.7553C63.0993 5.44 62.5593 6.916 62.5593 8.896V13H60.8133V3.928H62.5593V5.674C62.9733 4.468 63.6933 3.928 64.9713 3.928H66.0693V5.44ZM65.6551 13.828H66.3031C66.8071 13.828 67.0951 13.414 67.0951 12.658V10.948H68.8411V12.766C68.8411 14.368 67.9591 15.268 66.4831 15.268H65.6551V13.828Z" fill="#CBC9D5"/>
</svg>
