<svg width="455" height="192" viewBox="0 0 455 192" fill="none" xmlns="http://www.w3.org/2000/svg"><path d="M1.6602 16c0-8.8366 7.1634-16 16-16H437.66c8.837 0 16 7.1634 16 16v33c0 8.8366-7.163 16-16 16H17.6602c-8.8366 0-16-7.1634-16-16V16z" fill="#fff"/><path d="M43.3642 40V23.2h3.072l5.352 13.392 5.352-13.392h3.072V40h-2.4V27.496L52.7962 40h-2.016l-5.04-12.504V40h-2.376zm25.338.192c-3.624 0-6.24-2.616-6.24-6.24s2.616-6.24 6.24-6.24 6.216 2.616 6.216 6.24-2.592 6.24-6.216 6.24zm0-2.04c2.28 0 3.84-1.728 3.84-4.2 0-2.472-1.56-4.2-3.84-4.2-2.304 0-3.864 1.728-3.864 4.2 0 2.472 1.56 4.2 3.864 4.2zM76.9572 40V27.904h2.328v2.136c.648-1.512 2.088-2.328 3.888-2.328 2.736 0 4.512 1.968 4.512 4.848V40h-2.328v-6.984c0-1.92-1.128-3.216-2.832-3.216-1.896 0-3.24 1.536-3.24 3.648V40h-2.328zm22.111-3.936h2.3278c-.432 2.496-2.6158 4.128-5.5918 4.128-3.744 0-6.072-2.952-6.072-6.312 0-3.384 2.112-6.168 5.832-6.168 3.744 0 5.7358 2.664 5.7358 5.736 0 .312-.024.696-.048.912h-9.2398c.192 2.28 1.68 3.84 3.792 3.84 1.776 0 2.928-.768 3.264-2.136zm-3.504-6.48c-1.896 0-3.12 1.056-3.48 3.072h6.864c-.144-1.848-1.392-3.072-3.384-3.072zm17.3798-1.68l-4.248 11.664-1.824 5.328h-2.232l1.632-4.776-4.488-12.216h2.4l3.168 9.072 3.192-9.072h2.4z" fill="#252630"/><path d="M115.66 21v23.5" stroke="#2B2A36" stroke-linecap="square"/><path d="M426.402 43.693v-.0001l-.003-.0025-5.431-5.4311a9.3169 9.3169 0 002.213-6.5292 9.3164 9.3164 0 00-2.95-6.3267 9.316 9.316 0 00-12.942.2254 9.3137 9.3137 0 00-2.727 6.4256 9.3168 9.3168 0 008.828 9.4661 9.3143 9.3143 0 006.529-2.2126l5.432 5.4312h0l.002.0024a.743.743 0 001.031-.0181.7489.7489 0 00.217-.5116.7437.7437 0 00-.199-.5188zm-20.326-11.4604a7.8154 7.8154 0 014.825-7.2217 7.817 7.817 0 0110.658 5.6967 7.8188 7.8188 0 01-.444 4.5164 7.822 7.822 0 01-2.879 3.508 7.819 7.819 0 01-4.343 1.3174 7.829 7.829 0 01-5.525-2.2923 7.8296 7.8296 0 01-2.292-5.5245z" fill="#18171E" stroke="#18171E" stroke-width=".2"/><path d="M1.6602 123H453.66" stroke="#2B2A36" stroke-width="2" stroke-linecap="round"/><path d="M1.6602 90c0-8.8366 7.1634-16 16-16H437.66c8.837 0 16 7.1634 16 16v102H1.6602V90z" fill="#fff"/><path opacity=".05" d="M21.6602 135H433.66" stroke="#2B2A36" stroke-width="2" stroke-linecap="round"/><path d="M43.1402 117v-14h2.22l4.62 11.7 4.6-11.7h2.22v14h-1.66v-11.16l-4.42 11.16h-1.5l-4.42-11.16V117h-1.66zm20.801.16c-2.98 0-5.12-2.18-5.12-5.2 0-3.04 2.14-5.2 5.12-5.2 3 0 5.14 2.16 5.14 5.2 0 3.02-2.14 5.2-5.14 5.2zm0-1.44c2.08 0 3.5-1.56 3.5-3.76 0-2.2-1.42-3.76-3.5-3.76-2.06 0-3.48 1.56-3.48 3.76 0 2.2 1.42 3.76 3.48 3.76zm6.9983 1.28v-10.08h1.6v1.94c.52-1.4 1.78-2.1 3.32-2.1 2.28 0 3.76 1.62 3.76 4.08V117h-1.6v-5.9c0-1.72-1-2.88-2.52-2.88-1.72 0-2.96 1.38-2.96 3.34V117h-1.6zm18.5282-3.24h1.62c-.34 2.06-2.12 3.4-4.62 3.4-2.98 0-4.98-2.38-4.98-5.26 0-2.96 1.84-5.14 4.8-5.14 2.94 0 4.7 2.04 4.7 4.72 0 .22-.02.56-.04.7h-7.88c.12 2.08 1.5 3.56 3.4 3.56 1.64 0 2.68-.72 3-1.98zm-3.18-5.64c-1.7 0-2.84 1-3.14 2.78h6.2c-.12-1.7-1.26-2.78-3.06-2.78zm14.3223-1.2l-3.2002 8.7-1.84 5.46h-1.54l1.28-3.92-3.76-10.24h1.66l2.86 8 2.86-8h1.6802zm6.096 10.08v-14h1.7v14h-1.7zm4.308 0v-10.08h1.6v1.94c.52-1.4 1.78-2.1 3.32-2.1 2.28 0 3.76 1.62 3.76 4.08V117h-1.6v-5.9c0-1.72-1-2.88-2.52-2.88-1.72 0-2.96 1.38-2.96 3.34V117h-1.6zM31.4974 107.949l-7.9408 7.94h5.8811c.1473 0 .2886.058.3928.163a.5544.5544 0 010 .785.5566.5566 0 01-.3928.163h-7.222a.5566.5566 0 01-.3928-.163.5544.5544 0 01-.1627-.393v-7.222c0-.147.0585-.288.1627-.392a.5524.5524 0 01.3928-.163c.1473 0 .2886.058.3928.163a.5538.5538 0 01.1627.392v5.882l7.9401-7.941a.5524.5524 0 01.393-.163.5528.5528 0 01.3931.163.552.552 0 01.1204.18c.028.068.0424.14.0424.213 0 .073-.0144.145-.0424.213a.5628.5628 0 01-.1204.18zM43.1402 168v-14h2.22l4.62 11.7 4.6-11.7h2.22v14h-1.66v-11.16l-4.42 11.16h-1.5l-4.42-11.16V168h-1.66zm20.801.16c-2.98 0-5.12-2.18-5.12-5.2 0-3.04 2.14-5.2 5.12-5.2 3 0 5.14 2.16 5.14 5.2 0 3.02-2.14 5.2-5.14 5.2zm0-1.44c2.08 0 3.5-1.56 3.5-3.76 0-2.2-1.42-3.76-3.5-3.76-2.06 0-3.48 1.56-3.48 3.76 0 2.2 1.42 3.76 3.48 3.76zm6.9983 1.28v-10.08h1.6v1.94c.52-1.4 1.78-2.1 3.32-2.1 2.28 0 3.76 1.62 3.76 4.08V168h-1.6v-5.9c0-1.72-1-2.88-2.52-2.88-1.72 0-2.96 1.38-2.96 3.34V168h-1.6zm18.5282-3.24h1.62c-.34 2.06-2.12 3.4-4.62 3.4-2.98 0-4.98-2.38-4.98-5.26 0-2.96 1.84-5.14 4.8-5.14 2.94 0 4.7 2.04 4.7 4.72 0 .22-.02.56-.04.7h-7.88c.12 2.08 1.5 3.56 3.4 3.56 1.64 0 2.68-.72 3-1.98zm-3.18-5.64c-1.7 0-2.84 1-3.14 2.78h6.2c-.12-1.7-1.26-2.78-3.06-2.78zm14.3223-1.2l-3.2002 8.7-1.84 5.46h-1.54l1.28-3.92-3.76-10.24h1.66l2.86 8 2.86-8h1.6802zm10.476 10.24c-2.98 0-5.12-2.18-5.12-5.2 0-3.04 2.14-5.2 5.12-5.2 3 0 5.14 2.16 5.14 5.2 0 3.02-2.14 5.2-5.14 5.2zm0-1.44c2.08 0 3.5-1.56 3.5-3.76 0-2.2-1.42-3.76-3.5-3.76-2.06 0-3.48 1.56-3.48 3.76 0 2.2 1.42 3.76 3.48 3.76zm15.678-8.8V168h-1.6v-1.94c-.52 1.4-1.76 2.1-3.32 2.1-2.28 0-3.76-1.62-3.76-4.08v-6.16h1.6v5.9c0 1.72 1 2.88 2.52 2.88 1.74 0 2.96-1.38 2.96-3.34v-5.44h1.6zm3.548-3.22h1.6v3.22h3.1v1.42h-3.1v5.46c0 1.12.64 1.78 1.62 1.78h1.48V168h-1.54c-1.92 0-3.16-1.2-3.16-3.16v-5.5h-2.1v-1.42h2.1v-3.22zM21.823 169.051l7.9407-7.94h-5.8811a.5524.5524 0 01-.3928-.163.5544.5544 0 010-.785.5566.5566 0 01.3928-.163h7.222a.5563.5563 0 01.5556.556v7.222a.554.554 0 01-.1628.392.5521.5521 0 01-.3928.163.5524.5524 0 01-.3928-.163.5538.5538 0 01-.1627-.392v-5.882l-7.9401 7.941a.5513.5513 0 01-.393.163.5524.5524 0 01-.393-.163.5507.5507 0 01-.1205-.18.5581.5581 0 010-.426.5614.5614 0 01.1205-.18z" fill="#2B2A36"/></svg>