<svg width="227" height="225" viewBox="0 0 227 225" fill="none" xmlns="http://www.w3.org/2000/svg">
<g clip-path="url(#clip0_14_164)">
<path d="M181.487 123.84C181.487 123.84 163.879 121.95 153.674 111.823L141.624 137.368C141.624 137.368 138.018 120.703 137.086 116.657C136.154 112.612 136.025 104.607 113.608 104.72H95.9194C95.9194 104.72 74.8264 103.944 67.64 115.596C60.4537 127.248 60.1565 133.144 60.1565 133.144L42.5081 201.524L37.6046 224.955H147.487L146.305 192.366C146.305 192.366 155.301 193.208 161.995 184.302C168.688 175.395 173.247 164.698 175.172 158.683C177.097 152.668 181.284 137.368 181.284 137.368L181.487 123.84Z" fill="#18171E"/>
<path d="M96.5502 104.707L96.3746 90.1168C96.3746 90.1168 91.7818 91.5493 89.7354 85.9123C87.6889 80.2753 97.3405 79.2805 98.3063 79.7381C98.3063 79.7381 104.385 76.9262 106.911 75.4142C111.592 72.5824 115.232 64.6508 115.232 64.6508L118.069 68.6298L120.595 83.2198C120.595 83.2198 121.439 92.9088 119.21 95.2565C118.372 96.1382 117.349 96.8316 116.213 97.2895C115.076 97.7473 113.852 97.9587 112.625 97.9092L113.145 104.747C113.145 104.747 114.921 110.344 115.171 111.299C115.421 112.254 116.758 116.816 112.551 118.063C108.343 119.31 104.838 116.737 102.757 114.31C100.677 111.882 96.5502 104.707 96.5502 104.707Z" fill="white"/>
<path d="M158.355 115.232L161.907 109.316C161.907 109.316 163.933 98.7051 164.818 97.896C165.703 97.087 166.622 94.8189 171.295 94.9316C171.648 94.7393 171.982 94.5174 172.295 94.2684C172.417 94.1026 180.724 84.8911 180.724 84.8911C181.265 84.6914 181.847 84.6257 182.42 84.6997C182.992 84.7737 183.537 84.9852 184.007 85.3155C185.445 86.4628 185.054 88.7375 184.317 90.0042C183.581 91.2709 179.34 96.7952 179.34 96.7952C179.34 96.7952 183.622 96.8349 184.067 98.725L182.298 100.562L181.751 117.234C181.751 117.234 177.57 122.228 175.496 122.599C175.469 122.586 162.036 118.773 158.355 115.232Z" fill="white"/>
<path d="M130.056 124.436L129.07 200.43C129.07 200.43 99.3114 208.859 74.4968 207.201C49.6823 205.543 32.7768 199.455 23.6115 190.622C14.4463 181.788 13.6965 171.721 13.6965 171.721L13.5277 92.9354C13.5277 92.9354 11.5015 114.071 38.9974 124.417C66.4933 134.762 97.3392 130.783 100.162 130.505C105.545 129.954 130.056 124.436 130.056 124.436Z" fill="white"/>
<path d="M103.37 164.751C103.37 164.751 139.673 161.581 150.649 154.366V180.674C150.649 180.674 131.184 189.753 103.37 191.013V164.751Z" fill="#FFB800"/>
<path d="M158.357 115.232L160.477 111.703C160.477 111.703 154.453 110.211 153.892 111.359C153.332 112.506 158.357 115.232 158.357 115.232Z" fill="#18171E"/>
<path d="M181.489 117.533C181.489 117.533 177.571 122.248 175.957 122.586C175.957 122.586 179.82 123.667 181.489 123.621V117.533Z" fill="#18171E"/>
<path d="M188.115 28.8391V48.0714C188.115 48.0714 180.686 44.4637 173.796 43.5087C166.907 42.5537 161.815 42.1823 161.815 42.1823V22.97C167.008 22.9287 172.182 23.5983 177.187 24.9595C180.911 26.02 184.561 27.3159 188.115 28.8391Z" fill="#18171E"/>
<path d="M188.406 21.4844L188.075 96.0324C188.075 96.0324 199.868 87.9682 205.737 78.7897C211.606 69.6113 214.585 61.4874 214.916 58.7352C215.247 55.983 216.057 45.5578 211.478 39.4565C206.899 33.3553 204.987 29.4558 188.406 21.4844Z" fill="#FFB800"/>
<path d="M101.54 56.7921C103.857 56.9646 112.759 57.9726 112.455 63.1454C112.11 69.114 101.338 78.4516 101.304 78.4848C102.228 78.1196 103.13 77.7033 104.005 77.238C106.782 75.5937 109.269 73.5174 111.367 71.0903C112.252 69.9297 115.319 64.8829 115.319 64.8829C115.319 64.8829 117.487 67.1112 117.77 68.5039C118.161 66.6958 118.112 64.8228 117.627 63.0368C117.143 61.2508 116.236 59.6022 114.981 58.2246C112.239 55.101 105.903 55.8239 101.54 56.7921Z" fill="white"/>
<path d="M158.355 116.206C158.854 113.885 161.522 108.911 161.549 108.872L163.312 102.147C163.38 101.822 163.461 101.484 163.549 101.146C164.129 98.8975 164.899 96.3973 166.926 95.177C168.035 94.6026 169.288 94.3496 170.539 94.4475C172.128 94.4632 173.712 94.6343 175.267 94.9582C176.037 95.1024 176.784 95.3454 177.489 95.6811C179.056 96.4835 180.251 98.3802 179.4 100.323C179.133 100.866 178.755 101.35 178.291 101.744C177.826 102.139 177.284 102.436 176.699 102.618C175.337 103.059 173.912 103.283 172.477 103.281C170.337 103.355 168.211 102.899 166.297 101.955C168.378 101.849 170.235 102.273 172.16 102.273C173.572 102.301 174.979 102.106 176.327 101.696C176.773 101.555 177.187 101.329 177.543 101.031C177.9 100.732 178.194 100.368 178.408 99.9586C178.638 99.3303 178.618 98.6401 178.353 98.0254C178.087 97.4108 177.595 96.917 176.976 96.6427C176.354 96.3479 175.696 96.136 175.017 96.0126C173.527 95.6999 172.008 95.5377 170.485 95.5285C169.437 95.4029 168.375 95.5999 167.446 96.0922C165.75 97.14 165.041 99.4081 164.514 101.477C164.427 101.802 164.352 102.14 164.278 102.459L162.468 109.316C162.313 109.634 159.712 114.469 158.746 116.034C158.697 116.088 158.636 116.131 158.569 116.161C158.501 116.19 158.429 116.206 158.355 116.206Z" fill="#18171E"/>
<path d="M181.927 114.562C180.455 114.409 179.516 113.554 179.003 111.909C178.676 110.736 178.789 109.486 179.32 108.388C179.917 107.086 180.727 105.89 181.718 104.846C181.569 106.597 180.827 107.565 180.286 108.825C179.86 109.697 179.761 110.688 180.009 111.624C180.394 112.837 181.009 113.421 181.988 113.521C182.42 114.369 182.225 114.562 181.927 114.562Z" fill="#18171E"/>
<path d="M178.976 97.6175C179.468 95.917 180.345 94.348 181.543 93.0283C183.353 90.8066 184.764 89.0492 184.157 86.7612C183.9 85.8062 183.177 84.7717 181.988 85.0568C181.311 85.2626 180.694 85.6267 180.192 86.1179C177.017 88.7706 174.424 92.1794 172.31 95.1372C173.814 91.3066 176.298 87.9215 179.523 85.3088C180.156 84.7088 180.928 84.2695 181.772 84.0289C183.576 83.6045 184.798 84.964 185.197 86.4827C185.94 89.2946 184.224 91.4101 182.711 93.267C181.394 94.8984 180.394 96.1386 179.415 97.392C179.367 97.4625 179.301 97.52 179.225 97.5594C179.148 97.5987 179.063 97.6187 178.976 97.6175Z" fill="#18171E"/>
<path d="M184.163 99.4877C183.353 98.1613 182.772 97.6573 181.779 97.4119C181.104 97.2594 179.962 97.1334 179.327 98.0287C179.185 96.4039 180.489 96.0392 182.029 96.4105C182.652 96.532 183.229 96.8207 183.695 97.2445C184.161 97.6683 184.498 98.2106 184.67 98.8113C184.251 99.4811 184.251 99.4877 184.163 99.4877Z" fill="#18171E"/>
<path d="M176.876 109.349C176.07 109.36 175.275 109.168 174.566 108.792C173.856 108.416 173.257 107.868 172.824 107.2C172.29 106.252 171.966 104.634 173.452 102.346C173.384 104.375 173.182 105.662 173.749 106.696C174.09 107.207 174.558 107.623 175.109 107.905C175.66 108.187 176.275 108.326 176.897 108.308C177.938 108.224 178.905 107.749 179.598 106.982C180.075 106.497 180.526 105.988 180.949 105.456C181.212 105.145 181.483 104.793 181.807 104.468C182.286 105.496 182.023 105.795 181.773 106.12C181.327 106.643 180.908 107.141 180.321 107.718C179.451 108.667 178.241 109.249 176.944 109.343L176.876 109.349Z" fill="#18171E"/>
<path d="M172.511 114.92C173.574 112.868 174.099 110.589 174.037 108.288C175.111 108.335 175.388 111.69 172.923 114.747C172.871 114.804 172.808 114.849 172.736 114.879C172.665 114.909 172.588 114.923 172.511 114.92Z" fill="#18171E"/>
<path d="M181.489 124.357C178.571 124.357 173.452 123.03 167.454 120.616C162.118 118.508 152.311 113.819 153.399 111.166C153.865 110.026 155.263 110.072 156.1 110.105C157.613 110.137 159.107 110.438 160.511 110.994C158.93 111.465 157.593 111.193 156.134 111.14C155.29 111.14 154.581 111.14 154.405 111.551C154.074 112.367 158.525 115.961 167.913 119.662C173.702 121.949 178.801 123.316 181.55 123.322C182.016 124.125 181.779 124.357 181.489 124.357Z" fill="#18171E"/>
<path d="M109.428 98.4199C108.435 98.4199 107.368 98.4199 106.28 98.3204C107.807 97.6142 109.485 97.2842 111.17 97.3588C114.115 97.3057 116.371 97.266 118.1 95.6677C118.666 95.1536 119.125 94.5365 119.451 93.8506C119.841 92.8727 120.089 91.8457 120.187 90.8C120.359 89.5163 120.424 88.2211 120.383 86.927C120.266 84.5249 120.009 82.1313 119.613 79.758C119.1 76.3029 117.526 69.6711 117.506 69.6047C118.6 69.6445 120.14 76.1105 120.572 79.0285C121.017 81.6337 121.305 84.2621 121.437 86.9005C121.482 88.2499 121.415 89.6007 121.234 90.9392C121.119 92.0769 120.841 93.1931 120.41 94.2551C120.036 95.0615 119.506 95.789 118.85 96.3972C116.824 98.274 114.257 98.3204 111.771 98.3867C110.63 98.4066 110.049 98.4199 109.428 98.4199Z" fill="#18171E"/>
<path d="M105.748 76.7604C106.16 76.6477 106.464 76.7604 106.781 78.2526C107.126 79.884 106.734 80.2421 106.349 80.2421C105.964 80.2421 105.525 79.8177 105.39 78.6306C105.255 77.4435 105.228 76.9196 105.748 76.7604Z" fill="#18171E"/>
<path d="M116.494 74.5255C116.9 74.3929 117.21 74.5255 117.575 75.9779C117.98 77.6027 117.575 77.9674 117.217 77.9674C116.859 77.9674 116.38 77.5695 116.197 76.3957C116.015 75.2219 115.961 74.698 116.494 74.5255Z" fill="#18171E"/>
<path d="M118.433 71.8796C117.542 71.4087 116.812 71.0904 115.157 71.7403C116.799 69.9762 117.859 70.3741 118.724 70.9312C118.771 71.8 118.602 71.8796 118.433 71.8796Z" fill="#18171E"/>
<path d="M95.2459 90.747C94.3584 90.7499 93.4812 90.5607 92.6767 90.1928C91.8721 89.8249 91.1601 89.2874 90.5912 88.6186C90.0223 87.9497 89.6106 87.1659 89.3853 86.323C89.1601 85.4801 89.1268 84.5989 89.288 83.7419C89.4491 82.885 89.8006 82.0734 90.3175 81.3651C90.8344 80.6567 91.504 80.0689 92.2786 79.6436C93.0532 79.2183 93.9138 78.9658 94.799 78.9042C95.6843 78.8426 96.5725 78.9734 97.4005 79.2873C97.7179 79.2873 98.5014 79.5194 99.4267 80.6136C97.8327 80.3484 97.2789 80.3019 97.2721 80.3019C96.295 79.9163 95.2238 79.8218 94.1923 80.03C92.902 80.3065 91.7758 81.0739 91.0606 82.164C90.3453 83.2542 90.0992 84.5782 90.3762 85.8461C90.563 86.6924 90.9754 87.4747 91.5713 88.1131C92.1671 88.7515 92.925 89.223 93.7673 89.4794C94.6097 89.7357 95.5063 89.7677 96.3654 89.5722C97.2245 89.3766 98.0152 88.9604 98.6567 88.3662C98.5824 89.8584 97.5963 90.3557 96.5292 90.5945C96.1082 90.6904 95.678 90.7415 95.2459 90.747Z" fill="#18171E"/>
<path d="M94.2722 88.1141C93.9142 87.2254 96.8117 84.5263 96.8117 84.5263L93.0294 82.3112C93.5697 81.416 97.9531 83.9891 97.9531 83.9891C98.0477 84.8048 94.6369 87.9682 94.6369 87.9682C94.5383 88.0601 94.4081 88.1122 94.2722 88.1141Z" fill="#18171E"/>
<path d="M110.854 119.25C110.114 119.245 109.38 119.124 108.679 118.892C105.829 117.964 103.485 115.875 102.026 114.283C99.6641 111.652 97.7361 108.673 96.3125 105.456C98.798 108.374 100.662 111.252 102.81 113.587C104.161 115.086 106.376 117.049 109.01 117.904C109.641 118.145 110.316 118.251 110.991 118.215C111.667 118.18 112.327 118.004 112.928 117.699C116.305 115.709 115.123 112.486 113.833 109.044C113.238 107.679 112.829 106.243 112.617 104.773L112.097 97.9093C113.15 97.8363 113.657 104.541 113.677 104.68C113.885 106.049 114.268 107.386 114.819 108.659C116.075 111.975 117.635 116.167 113.468 118.567C112.673 119.018 111.772 119.254 110.854 119.25Z" fill="#18171E"/>
<path d="M96.5486 105.204C96.0218 104.694 95.8732 90.0904 95.8732 90.0904C96.9268 90.0904 97.0619 104.68 97.0619 104.68C96.5553 105.204 96.5486 105.204 96.5486 105.204Z" fill="#18171E"/>
<path d="M147.496 225.472C146.672 218.654 146.469 212.374 146.266 206.299C145.976 197.486 145.685 188.394 145.105 179.109C146.739 188.294 147.036 197.419 147.327 206.24C147.523 212.308 147.725 218.588 148.002 224.902C147.846 225.102 147.677 225.293 147.496 225.472Z" fill="#18171E"/>
<path d="M143.726 154.054C141.957 140.976 140.012 129.695 137.236 119.111C136.68 116.569 135.771 114.115 134.534 111.816C130.677 105.324 122.647 105.29 115.562 105.264H113.151C113.419 104.891 113.786 104.599 114.213 104.419C114.64 104.238 115.109 104.177 115.569 104.243C122.937 104.243 131.292 104.302 135.439 111.305C136.731 113.683 137.678 116.225 138.256 118.859C141.167 130.234 143.17 141.816 144.246 153.497C143.726 154.054 143.726 154.054 143.726 154.054Z" fill="#18171E"/>
<path d="M116.372 85.4614C116.271 83.0806 116.372 81.2038 116.048 80.9584C115.751 80.8589 114.582 81.2568 113.535 81.794C112.772 81.4293 111.442 74.2868 111.442 74.2868C112.482 74.1011 113.684 80.5671 113.684 80.5671C114.711 80.0963 116.041 79.6586 116.69 80.1361C117.73 80.9319 117.169 83.8432 116.886 85.0569C116.859 85.1715 116.794 85.274 116.701 85.3475C116.608 85.4211 116.492 85.4612 116.372 85.4614Z" fill="#18171E"/>
<path d="M60.8539 130.405C60.4149 130.286 60.2663 129.994 60.3541 129.742C63.8527 119.363 68.0808 112.638 72.91 109.747C78.5969 106.338 84.4392 104.229 95.9211 104.229C84.6823 105.271 78.9954 107.32 73.457 110.629C68.8508 113.395 64.778 119.914 61.3605 130.067C61.3216 130.167 61.2522 130.254 61.1615 130.314C61.0709 130.375 60.9635 130.407 60.8539 130.405Z" fill="#18171E"/>
<path d="M37.6046 225.472C38.7663 216.804 40.4143 209.065 41.9948 201.849C41.4477 209.284 39.7997 217.016 38.1247 225.061C38.0997 225.178 38.0343 225.283 37.9395 225.358C37.8446 225.432 37.7263 225.473 37.6046 225.472Z" fill="#18171E"/>
<path d="M80.4466 225.472C81.122 219.165 82.1689 213.574 83.182 207.234C83.182 213.754 82.1689 219.364 80.9599 225.061C80.9364 225.177 80.8722 225.282 80.7785 225.357C80.6849 225.432 80.5675 225.473 80.4466 225.472Z" fill="#18171E"/>
<path d="M95.9214 93.0349C87.006 92.1993 80.9003 82.8617 81.3596 70.825C81.5284 66.4679 82.9535 63.1321 85.6011 60.8773C89.5658 57.5614 94.8745 57.8532 95.8403 57.9394C97.4343 57.2763 111.435 51.7453 116.19 58.8944C119.905 64.4718 118.568 69.3859 118.507 69.5981C117.562 68.175 116.531 66.8086 115.42 65.5063C114.232 68.159 109.423 77.1915 98.1367 80.2422C110.537 75.8188 114.691 64.5447 114.725 64.432C115.623 64.2463 116.819 65.1814 117.717 66.9985C117.67 64.3114 116.833 61.695 115.306 59.4647C110.855 52.7666 96.2726 58.8811 96.1307 58.9408C95.7998 58.9408 90.2007 58.3771 86.2833 61.6731C83.8721 63.6958 82.5753 66.7796 82.4132 70.8316C81.9809 82.298 87.6814 91.1846 95.9686 91.9672C96.4482 92.8359 96.1915 93.0349 95.9214 93.0349Z" fill="#18171E"/>
<path d="M112.995 90.6326C112.418 90.6392 111.847 90.5072 111.334 90.248C110.766 89.9157 110.271 89.4752 109.879 88.9525C109.487 88.4297 109.205 87.8352 109.051 87.204C110.084 86.9918 110.496 88.663 111.8 89.3195C112.26 89.5102 112.757 89.5983 113.255 89.5777C113.754 89.557 114.242 89.4281 114.684 89.2002C114.36 90.4801 113.65 90.6326 112.995 90.6326Z" fill="#18171E"/>
<path d="M81.8659 67.1178C75.6589 65.566 73.5449 59.2061 74.146 53.9471C74.7471 48.6881 78.2998 42.5139 86.3169 42.295C90.3693 42.1889 93.4357 43.3229 95.4484 45.6772C99.3725 50.2797 97.8461 57.7935 97.7786 58.1118C96.7587 57.8267 98.2311 50.5516 94.6379 46.3404C92.8346 44.2448 90.0992 43.2036 86.3439 43.3296C78.9819 43.5352 75.7265 49.2385 75.1726 54.0598C74.6188 58.8811 76.5235 64.7171 81.9808 66.0965C82.3185 66.9653 82.1023 67.1178 81.8659 67.1178Z" fill="#18171E"/>
<path d="M48.3851 120.822C61.8932 110.642 78.1031 103.281 96.1567 97.9955C78.5083 104.243 62.4336 111.558 48.689 120.729C48.5991 120.789 48.4935 120.821 48.3851 120.822Z" fill="#18171E"/>
<path d="M120.594 93.4063C123.471 91.8877 126.092 91.5096 129.003 91.1648C126.234 92.5376 123.599 92.909 120.682 93.3997L120.594 93.4063Z" fill="#18171E"/>
<path d="M48.6544 44.8947C62.838 34.2838 80.0272 26.6174 99.5127 21.2523C100.188 21.0666 100.864 20.8809 101.539 20.7085C101.441 21.1034 101.226 21.4608 100.92 21.7349C100.615 22.009 100.233 22.1873 99.8234 22.2471C80.4459 27.5525 63.3513 35.1791 48.9719 44.7952C48.8813 44.864 48.7689 44.8993 48.6544 44.8947Z" fill="#18171E"/>
<path d="M181.752 120.868C181.225 120.331 181.752 100.529 181.752 100.529C183.906 98.7846 185.757 97.4317 187.527 96.059L187.858 21.4844C188.594 21.0069 192.146 22.5256 193.308 23.0628C204.513 28.2091 211.875 36.0014 214.644 45.5976C219.197 61.5139 209.491 80.2753 188.526 96.6624C186.568 98.1811 184.751 99.5207 182.846 100.84L182.306 120.384C182.297 120.52 182.234 120.648 182.13 120.738C182.026 120.829 181.891 120.876 181.752 120.868ZM188.931 22.3068L188.607 95.2565C208.701 79.3402 217.974 61.2288 213.597 45.9159C210.943 36.6314 203.777 29.0447 192.876 24.031C192.052 23.6331 190.032 22.7445 188.931 22.3068Z" fill="#18171E"/>
<path d="M180.199 178.26C179.672 177.723 181.253 120.331 181.253 120.331C182.307 120.365 180.726 177.756 180.726 177.756C180.723 177.891 180.666 178.019 180.567 178.113C180.469 178.207 180.337 178.26 180.199 178.26Z" fill="#18171E"/>
<path d="M180.196 178.26C201.019 163.259 213.683 146.428 214.642 131.221C214.676 130.558 214.642 109.926 214.642 109.926C215.696 109.926 215.703 130.591 215.703 130.591C214.696 146.845 201.87 163.935 180.473 178.167C180.391 178.222 180.296 178.254 180.196 178.26Z" fill="#18171E"/>
<path d="M129.071 200.948C128.545 200.424 128.761 183.904 128.761 183.904C129.812 183.904 129.596 200.437 129.596 200.437C129.594 200.573 129.538 200.703 129.44 200.798C129.341 200.894 129.209 200.948 129.071 200.948Z" fill="#18171E"/>
<path d="M129.637 157.43C129.112 156.906 129.53 124.397 129.53 124.397C130.581 124.397 130.163 156.893 130.163 156.893C130.166 156.962 130.154 157.032 130.129 157.097C130.104 157.162 130.065 157.221 130.016 157.271C129.967 157.321 129.908 157.361 129.843 157.389C129.778 157.416 129.708 157.43 129.637 157.43Z" fill="#18171E"/>
<path d="M80.4194 132.03C63.2437 132.03 47.7229 129.211 35.8829 123.601C58.5902 133.204 94.0694 133.787 128.92 124.178L129.907 123.906C129.95 124.033 129.967 124.167 129.957 124.301C129.946 124.435 129.908 124.565 129.845 124.684C129.782 124.803 129.695 124.908 129.59 124.993C129.484 125.078 129.362 125.142 129.231 125.179C113.35 129.617 96.9304 131.921 80.4194 132.03Z" fill="#18171E"/>
<path d="M21.4291 113.209C17.9769 109.747 15.4602 105.493 14.1077 100.834C13.3764 98.2624 13.0038 95.6053 13 92.9354C14.0604 95.5285 14.4251 98.0883 15.1275 100.549C16.4076 104.933 18.7004 108.968 21.8276 112.34C21.679 113.162 21.5574 113.209 21.4291 113.209Z" fill="#18171E"/>
<path d="M80.4276 153.928C74.3562 153.943 68.2907 153.555 62.2726 152.767C74.7755 153.426 87.3123 153.08 99.7578 151.733C93.2063 153.537 86.7089 153.928 80.4276 153.928Z" fill="#18171E"/>
<path d="M80.4276 162.788C74.0298 162.797 67.6397 162.354 61.3068 161.462C74.126 162.255 86.9912 161.956 99.7578 160.566C93.2063 162.403 86.7089 162.788 80.4276 162.788Z" fill="#18171E"/>
<path d="M80.462 207.851C71.6147 207.903 62.7862 207.045 54.121 205.291C32.2851 200.702 18.1015 190.522 14.1098 176.582C13.4448 174.26 13.075 171.865 13.0089 169.453V117.533C14.0625 117.533 14.0693 169.433 14.0693 169.433C14.1423 171.757 14.5006 174.064 15.1364 176.304C19.0065 189.853 32.9267 199.787 54.3507 204.277C75.8895 208.793 102.372 207.248 128.929 199.933C113.335 205.202 96.9539 207.878 80.462 207.851Z" fill="#18171E"/>
<path d="M13.5255 118.05C13 117.533 13 93.8705 13 93.8705C14.0509 93.8705 14.0509 117.533 14.0509 117.533C14.0509 117.67 13.9956 117.802 13.897 117.899C13.7985 117.996 13.6648 118.05 13.5255 118.05Z" fill="#18171E"/>
<path d="M48.6535 120.822C48.1281 120.298 48.1281 44.3774 48.1281 44.3774C49.179 44.3774 49.179 120.298 49.179 120.298C49.1799 120.367 49.167 120.435 49.1409 120.498C49.1149 120.562 49.0764 120.62 49.0275 120.668C48.9786 120.717 48.9204 120.756 48.8562 120.782C48.792 120.809 48.7231 120.822 48.6535 120.822Z" fill="#18171E"/>
<path d="M129.069 92.1994C128.543 91.6821 128.543 16 128.543 16C129.594 16 129.594 91.6821 129.594 91.6821C129.594 91.75 129.581 91.8173 129.554 91.88C129.528 91.9428 129.489 91.9998 129.44 92.0479C129.391 92.0959 129.334 92.134 129.27 92.16C129.206 92.186 129.138 92.1994 129.069 92.1994Z" fill="#18171E"/>
<path d="M189.863 130.704C193.916 126.446 200.298 121.154 205.904 114.887C201.034 121.897 194.598 127.235 190.181 130.597C190.091 130.669 189.978 130.706 189.863 130.704Z" fill="#18171E"/>
<path d="M147.103 192.883C165.926 191.849 176.28 156.992 180.799 136.082C177.246 157.516 166.69 192.883 147.103 192.883Z" fill="#18171E"/>
<path d="M141.626 137.886C141.147 137.15 153.365 111.239 153.365 111.239C154.324 111.677 142.106 137.587 142.106 137.587C142.062 137.676 141.994 137.751 141.909 137.803C141.824 137.856 141.726 137.885 141.626 137.886Z" fill="#18171E"/>
<path d="M175.963 123.11C178.131 120.709 180.016 118.78 181.333 116.405C180.867 119.436 178.84 121.505 176.233 123.037C176.151 123.083 176.058 123.108 175.963 123.11Z" fill="#18171E"/>
<path d="M103.37 161.495C103.654 160.434 136.418 157.702 150.372 150.141C136.729 158.716 103.769 161.468 103.411 161.495H103.37Z" fill="#18171E"/>
<path d="M103.37 187.757C103.654 186.696 136.418 183.963 150.372 176.403C136.729 184.985 103.769 187.73 103.411 187.757H103.37Z" fill="#18171E"/>
<path d="M103.369 187.843C102.844 187.326 102.844 160.978 102.844 160.978C103.895 160.978 103.895 187.326 103.895 187.326C103.895 187.463 103.839 187.595 103.741 187.692C103.642 187.789 103.509 187.843 103.369 187.843Z" fill="#18171E"/>
<path d="M150.629 177.418C150.104 176.901 150.104 150.552 150.104 150.552C151.155 150.552 151.155 176.901 151.155 176.901C151.155 177.038 151.099 177.169 151.001 177.266C150.902 177.363 150.768 177.418 150.629 177.418Z" fill="#18171E"/>
<path d="M35.5318 102.631C35.005 102.114 35.005 79.4198 35.005 79.4198C39.2466 76.462 47.8378 72.9604 48.189 72.788C48.4997 73.7761 40.0841 77.218 36.0316 79.6784V101.165C40.2732 98.705 47.8175 95.6212 48.189 95.482C48.4997 96.4767 39.7329 100.058 35.8155 102.532C35.7326 102.591 35.6341 102.625 35.5318 102.631Z" fill="#18171E"/>
<path d="M161.819 47.7995C161.292 47.2822 161.292 28.0632 161.292 28.0632C180.123 28.4611 188.065 33.3222 188.396 33.5278C187.755 34.3502 179.92 29.5488 162.346 28.6137V47.2822C162.346 47.4194 162.29 47.5509 162.192 47.648C162.093 47.745 161.959 47.7995 161.819 47.7995Z" fill="#18171E"/>
<path d="M188.114 53.6951C187.757 53.5691 179.753 48.6948 161.774 47.7995C180.104 47.6735 188.047 52.5346 188.378 52.7402C188.459 53.6089 188.304 53.6951 188.114 53.6951Z" fill="#18171E"/>
<path d="M54.6206 146.918V164.095C54.6206 164.095 43.5033 164.221 36.1144 158.192V140.406C36.1144 140.406 41.4096 145.479 54.6206 146.918Z" fill="#18171E"/>
<path d="M190.242 141.175C193.525 137.667 196.881 135.008 199.934 132.322C197.57 135.797 194.173 138.483 190.56 141.076C190.467 141.14 190.356 141.175 190.242 141.175Z" fill="#18171E"/>
</g>
<defs>
<clipPath id="clip0_14_164">
<rect width="227" height="225" fill="white"/>
</clipPath>
</defs>
</svg>
