<svg width="199" height="209" viewBox="0 0 199 209" fill="none" xmlns="http://www.w3.org/2000/svg">
<path d="M69.6824 41.1708C69.6824 41.1708 64.2468 33.8075 64.648 27.5219C65.0492 21.2362 69.2969 17.903 76.6439 17.2565C76.6439 17.2565 83.2358 10.159 89.631 10.6835C93.641 11.0673 97.4843 12.3532 100.817 14.4261C100.817 14.4261 112.718 11.8903 117.902 20.3023C123.086 28.7144 114.449 35.8333 111.609 36.7313L111.444 30.3379C106.473 32.1763 101.107 32.948 95.7587 32.5935C91.3442 32.2436 86.9536 31.6752 82.6065 30.891C82.6065 30.891 84.9663 39.0516 82.1345 43.2468C81.3446 42.2846 80.3247 41.4997 79.1523 40.952C77.98 40.4042 76.6862 40.1081 75.3696 40.086C70.9567 40.1004 69.6824 41.1708 69.6824 41.1708Z" fill="#2B2A36"/>
<path d="M88.7086 162.193L92.0439 157.05C92.0439 157.05 97.0625 161.655 95.7174 163.673C94.3722 165.692 88.7086 162.193 88.7086 162.193Z" fill="#2B2A36"/>
<path d="M70.1555 146.49L74.1672 141.677C74.1672 141.677 70.4151 139.644 68.3148 141.325C66.2145 143.006 70.1555 146.49 70.1555 146.49Z" fill="#2B2A36"/>
<path d="M103.468 66.5936L102.957 78.1736L107.929 78.7483C107.929 78.7483 113.097 71.6725 103.909 66.5936H103.468Z" fill="#2B2A36"/>
<path d="M77.3596 64.7905C77.3596 64.7905 65.6312 65.4514 65.5604 70.8894C65.4896 76.3274 73.0726 79.1362 73.0726 79.1362H76.3763L77.3596 64.7905Z" fill="#2B2A36"/>
<path d="M82.9447 30.891C85.6271 31.8249 103.129 30.0649 110.264 27.6009C116.234 25.5248 115.133 18.9015 114.614 16.8254C115.957 17.7768 117.076 18.9669 117.902 20.3239C123.086 28.7431 114.449 35.8549 111.609 36.7528L111.444 30.3594C106.473 32.1978 101.107 32.9696 95.7587 32.6151C88.6792 31.9901 84.164 31.1783 82.9526 30.9772C82.7796 30.8335 82.7717 30.8335 82.9447 30.891Z" fill="#2B2A36"/>
<path d="M81.9611 30.6682L82.8343 31.8391C83.3456 34.102 84.3603 39.9207 82.1263 43.2467C81.4894 42.47 80.7031 41.8054 79.8058 41.2856C82.0398 40.05 81.9611 30.6682 81.9611 30.6682Z" fill="#2B2A36"/>
<path d="M96.2992 68.059C103.237 68.059 110.23 65.6382 111.567 59.7548C111.876 57.5584 112.023 55.3457 112.008 53.1315L112.063 51.1919C112.15 48.692 111.717 31.6021 111.701 30.8766C110.403 31.0777 110.852 48.6848 110.765 51.156L110.71 53.1027C110.72 55.2467 110.583 57.3892 110.301 59.5177C108.909 65.6094 100.437 67.5131 93.1291 66.7013C91.0864 66.5088 89.0719 66.1187 87.1194 65.5376C88.3858 67.197 90.376 67.5849 92.9718 67.8723C94.0758 67.996 95.187 68.0583 96.2992 68.059Z" fill="#2B2A36"/>
<path d="M76.4802 79.7252C77.1252 79.1649 78.5569 53.6056 78.5569 53.6056C77.259 53.5481 75.8352 79.1003 75.8352 79.1003C76.0319 79.3237 76.2476 79.5327 76.4802 79.7252Z" fill="#2B2A36"/>
<path d="M74.6462 54.8411C76.5107 54.8372 78.3218 54.2715 79.7985 53.232C76.3531 54.1515 72.6796 54.1012 70.0759 52.1473C69.2281 51.5083 68.5521 50.7001 68.1002 49.785C67.6483 48.8698 67.4325 47.8722 67.4693 46.8688C67.5062 45.8655 67.7947 44.8833 68.3128 43.9978C68.8308 43.1124 69.5645 42.3474 70.4574 41.7617C71.3502 41.1761 72.3783 40.7854 73.4626 40.6198C74.5468 40.4543 75.6582 40.5182 76.7111 40.8067C77.764 41.0952 78.7303 41.6006 79.5356 42.284C80.3409 42.9673 80.9637 43.8103 81.356 44.7481C82.0483 43.0743 81.1672 41.9537 80.0266 41.0917C78.9743 40.3051 77.7304 39.761 76.3997 39.5052C75.069 39.2493 73.6905 39.2892 72.3802 39.6214C71.0699 39.9537 69.8662 40.5686 68.8704 41.4144C67.8747 42.2602 67.1161 43.3121 66.6584 44.4816C66.2008 45.651 66.0576 46.9037 66.2408 48.1343C66.424 49.3649 66.9283 50.5372 67.7112 51.5526C68.4942 52.568 69.5328 53.3967 70.7397 53.969C71.9465 54.5413 73.2863 54.8404 74.6462 54.8411Z" fill="#2B2A36"/>
<path d="M72.1601 51.3931C72.4511 51.3285 78.5317 48.5772 78.5317 48.5772C78.7047 47.6361 73.1748 42.4711 73.1748 42.4711C72.2466 43.2972 77.1551 47.8803 77.1551 47.8803L71.869 50.2725C71.6881 51.271 71.9162 51.3931 72.1601 51.3931Z" fill="#2B2A36"/>
<path d="M69.7462 42.083C67.0087 36.5301 62.2733 27.8379 67.3863 21.8324C68.5994 20.4158 70.208 19.3239 72.0431 18.6716C72.9516 18.3677 73.893 18.1534 74.8513 18.0322C76.8493 17.8383 77.046 17.8239 77.2112 17.4719C76.941 17.2272 76.6143 17.0407 76.2549 16.9264C75.8956 16.812 75.5127 16.7726 75.1345 16.811C73.9133 16.9276 72.7101 17.1686 71.5475 17.5294C69.4935 18.259 67.6941 19.4828 66.3401 21.0709C60.7315 27.6583 65.7108 36.8749 69.1798 41.7813C69.2354 41.8737 69.3175 41.9507 69.4172 42.0038C69.517 42.0569 69.6307 42.0843 69.7462 42.083Z" fill="#2B2A36"/>
<path d="M81.5989 21.3655C81.3472 19.9288 79.0345 18.3412 78.1928 17.7737C77.5321 18.8081 80.4976 20.877 81.2685 21.3008C81.3702 21.3492 81.4844 21.3715 81.5989 21.3655Z" fill="#2B2A36"/>
<path d="M106.993 143.121C105.168 141.49 103.524 141.016 101.298 140.283C103.099 142.144 104.83 142.632 106.804 143.099C106.865 143.117 106.929 143.125 106.993 143.121Z" fill="#2B2A36"/>
<path d="M110.14 134.766C106.773 133.071 102.478 132.295 100.095 130.815C101.959 133.401 106.435 134.22 110.038 134.759L110.14 134.766Z" fill="#2B2A36"/>
<path d="M104.632 149.363C102.721 148.527 100.734 147.845 98.6931 147.323C98.4729 148.494 100.778 149.019 104.569 149.363H104.632Z" fill="#2B2A36"/>
<path d="M113.174 126.706C111.371 124.927 108.929 123.798 106.291 123.524C106.236 124.709 109.823 124.961 112.836 126.62C112.938 126.677 113.055 126.707 113.174 126.706Z" fill="#2B2A36"/>
<path d="M69.944 147.093C70.5733 146.72 82.5299 132.676 85.519 130.341C90.6478 126.376 97.688 125.657 97.7588 125.657C97.3183 124.508 90.1207 125.248 84.6773 129.472C81.5859 131.878 69.9204 145.585 69.4327 146.159C69.6608 147.05 69.8024 147.093 69.944 147.093Z" fill="#2B2A36"/>
<path d="M87.9395 162.782C91.4084 158.07 94.6178 154.291 95.491 154.255C95.8795 154.287 96.2657 154.34 96.6473 154.413C98.6074 154.786 100.608 154.95 102.61 154.902C100.802 154.087 98.8681 153.53 96.8754 153.25C96.42 153.156 95.957 153.096 95.491 153.07C93.4143 153.07 89.1273 159.234 87.381 161.884C87.7113 162.754 87.8293 162.782 87.9395 162.782Z" fill="#2B2A36"/>
<path d="M29.9037 170.196C37.8328 158.12 59.5906 145.771 68.385 141.899C58.5444 144.888 36.9203 157.179 29.3452 169.305C29.6756 170.196 29.7857 170.196 29.9037 170.196Z" fill="#2B2A36"/>
<path d="M59.4943 193.284C72.9245 185.099 85.1807 175.412 95.9777 164.449C85.3111 173.701 71.8993 184.362 59.1325 192.185C59.0853 193.183 59.282 193.284 59.4943 193.284Z" fill="#2B2A36"/>
<path d="M11.6226 193.284C8.90872 187.322 6.90284 181.014 6.60393 174.607C5.5656 154.011 14.0217 134.802 23.5398 115.313C24.177 114.02 24.8141 112.648 25.4749 111.24C29.5495 102.562 34.6232 91.7578 42.9928 86.7723C48.743 83.3386 55.8462 82.2251 62.7055 81.1547L64.2236 80.9177C64.0034 79.7467 62.4852 79.9838 62.4852 79.9838C55.4922 81.0829 48.2632 82.2179 42.2849 85.7738C33.5849 90.9604 28.4325 101.944 24.2871 110.773C23.6263 112.21 22.9892 113.539 22.3599 114.824C12.7789 134.457 4.26768 153.81 5.30602 174.664C5.57771 181.103 7.53896 187.387 11.0247 192.989C11.0852 193.084 11.1729 193.161 11.2784 193.213C11.3838 193.265 11.5029 193.29 11.6226 193.284Z" fill="#2B2A36"/>
<path d="M72.8896 79.9263C74.3055 79.8114 75.3438 79.7611 76.5159 79.7252C75.2809 78.5758 74.2189 78.6333 72.8345 78.741C72.276 79.6821 72.5592 79.9263 72.8896 79.9263Z" fill="#2B2A36"/>
<path d="M93.4623 179.183H157.045C157.045 177.997 94.3748 177.997 94.3748 177.997L123.259 101.089H184.615C184.615 99.897 122.787 99.897 122.787 99.897C122.174 100.299 92.8487 178.392 92.8487 178.392C93.0611 179.089 93.2578 179.183 93.4623 179.183Z" fill="#2B2A36"/>
<path d="M94.2239 165.06C94.5473 165.08 94.8717 165.036 95.1746 164.931C95.4775 164.825 95.7517 164.661 95.9781 164.449C97.3153 163.106 96.2062 160.383 92.6664 156.353C95.0735 160.994 95.6005 163.063 95.0263 163.659C93.9407 164.751 87.3882 162.122 79.1995 155.347C75.9599 152.72 73.0571 149.765 70.5467 146.54C68.4543 143.71 68.1869 142.23 68.6352 141.778C69.2488 141.16 70.7984 141.476 73.3549 142.74C71.6401 140.585 69.0757 139.579 67.6756 140.987C66.6058 142.058 67.2114 144.148 69.469 147.201C72.0511 150.507 75.0358 153.533 78.3657 156.224C84.108 161.037 90.7706 165.06 94.2239 165.06Z" fill="#2B2A36"/>
<path d="M107.251 79.3372C107.306 78.1519 102.61 77.7927 102.61 77.7927C102.5 78.9708 107.196 79.3372 107.196 79.3372H107.251Z" fill="#2B2A36"/>
<path d="M153.521 101.089C145.6 88.475 133.391 81.7583 115.629 79.0214C132.793 82.8646 144.734 89.4233 152.978 100.816C153.037 100.899 153.117 100.968 153.212 101.016C153.306 101.063 153.413 101.089 153.521 101.089Z" fill="#2B2A36"/>
<path d="M97.3946 85.5799C98.0003 85.4147 107.039 82.3329 109.343 77.4768C110.232 75.246 110.142 72.7878 109.092 70.6164C108.63 69.5714 107.937 68.6248 107.056 67.8361C106.174 67.0474 105.124 66.4336 103.971 66.0332C105.59 67.4893 106.921 69.1907 107.904 71.0618C108.815 72.9325 108.905 75.0514 108.156 76.9811C106.213 81.0829 98.4015 83.9779 97.3003 84.3659C81.623 83.3242 67.2357 77.8647 66.4727 72.6494C66.3549 72.0042 66.3828 71.3439 66.5546 70.7089C66.7264 70.074 67.0385 69.4778 67.4717 68.957C69.045 67.1036 72.3488 65.8968 77.273 65.3652C71.8375 64.7617 68.2426 66.1266 66.4491 68.2386C65.9053 68.881 65.5128 69.619 65.2963 70.4065C65.0797 71.194 65.0437 72.0138 65.1905 72.8146C66.1581 79.4666 82.6377 84.6173 97.3553 85.5655L97.3946 85.5799Z" fill="#2B2A36"/>
<path d="M106.402 87.6991C111.657 85.4291 114.859 82.5557 116.133 78.9639C117.321 75.6881 116.833 71.8952 114.748 68.2818C113.548 66.0062 111.601 64.1283 109.179 62.9084C110.823 65.1354 112.326 66.5505 113.6 68.8278C115.511 72.161 115.96 75.6307 114.906 78.5975C113.718 81.8589 110.768 84.5527 106.119 86.6001C105.93 87.5842 106.166 87.6991 106.402 87.6991Z" fill="#2B2A36"/>
<path d="M57.2867 82.103C57.7902 82.0096 58.0025 81.6864 57.916 81.3847C57.916 81.2697 55.0685 70.1135 64.6101 64.144C69.3298 61.1627 73.7585 60.9113 77.5421 60.9113C73.2708 59.726 68.6691 60.1427 63.8707 63.167C53.5896 69.6322 56.626 81.5786 56.6574 81.7007C56.7012 81.8205 56.786 81.9243 56.8993 81.9968C57.0126 82.0692 57.1485 82.1064 57.2867 82.103Z" fill="#2B2A36"/>
<path d="M91.26 88.8916C62.9968 84.5814 60.3932 75.0128 60.3696 74.9122C59.1896 75.5803 61.7461 85.6015 91.1813 88.8844L91.26 88.8916Z" fill="#2B2A36"/>
<path d="M102.555 78.9637C103.208 78.389 103.68 66.5935 103.68 66.5935C102.382 66.5504 101.91 78.3459 101.91 78.3459C102.111 78.5634 102.327 78.7697 102.555 78.9637Z" fill="#2B2A36"/>
<path d="M50.7 151.598C51.1955 134.522 61.8227 117.59 61.9329 117.418C60.6979 116.994 49.8897 134.213 50.0549 151.008C50.0549 151.165 50.1229 151.315 50.2439 151.425C50.3648 151.535 50.5289 151.598 50.7 151.598Z" fill="#2B2A36"/>
<path d="M111.427 37.2988C111.867 37.1623 124.013 30.733 118.585 20.4891C117.744 18.7969 116.479 17.3089 114.893 16.1447C113.306 14.9806 111.443 14.1729 109.452 13.7868C103.27 12.5656 96.5125 14.9793 92.8469 17.745C97.1025 16.0712 103.411 13.8012 109.177 14.9434C110.978 15.2844 112.665 16.0121 114.097 17.0664C115.529 18.1207 116.666 19.4713 117.413 21.0064C122.337 30.266 111.568 35.9555 111.12 36.1925C110.978 37.2126 111.199 37.2988 111.427 37.2988Z" fill="#2B2A36"/>
<path d="M76.6531 17.8096C81.4122 13.4276 85.8644 11.2797 90.3639 11.2366C94.0101 11.2941 97.5063 12.5723 100.189 14.8284C100.975 13.8442 96.8378 10.0441 90.4976 10.0441C85.4947 10.0872 80.7278 12.3572 76.1733 16.8039C76.3149 17.7521 76.488 17.8096 76.6531 17.8096Z" fill="#2B2A36"/>
<path d="M81.5991 44.3961C84.6905 39.6909 83.778 33.8937 83.2824 31.6165C101.831 35.8333 114.173 30.1797 114.92 29.3895C113.646 28.7574 101.548 34.8563 82.5745 30.23C81.8744 31.2645 83.9196 38.4696 81.0012 43.5269C81.3945 44.3746 81.4968 44.3961 81.5991 44.3961Z" fill="#2B2A36"/>
<path d="M100.484 50.0928C101.861 49.2954 102.057 47.1403 101.074 38.2254C101.011 37.6723 100.964 37.3059 100.964 37.2125C100.98 37.1396 100.979 37.0644 100.961 36.9918C100.944 36.9192 100.91 36.8507 100.862 36.7907C100.814 36.7306 100.752 36.6803 100.682 36.6429C100.612 36.6054 100.534 36.5817 100.453 36.5732C100.274 36.5519 100.093 36.5935 99.9473 36.6896C99.8012 36.7857 99.7006 36.929 99.6661 37.0904C99.6473 37.5093 99.6817 37.9287 99.7684 38.3404C100.61 45.797 100.555 48.146 100.335 48.8572C99.1768 48.4011 98.0961 47.7964 97.1253 47.0613C96.9906 46.9901 96.8323 46.9657 96.6795 46.9928C96.5267 47.0198 96.3897 47.0964 96.2939 47.2084C96.1981 47.3205 96.1498 47.4603 96.1581 47.6023C96.1663 47.7442 96.2305 47.8787 96.3387 47.9808C96.6062 48.1748 98.9739 49.8916 100.484 50.0928Z" fill="#2B2A36"/>
<path d="M109.753 50.5238C114.299 50.5238 118.004 46.2639 118.004 41.0343C118.004 35.8046 114.299 31.5519 109.753 31.5519C105.206 31.5519 101.493 35.8046 101.493 41.0343C101.493 46.2639 105.198 50.5238 109.753 50.5238ZM109.753 32.7659C113.568 32.7659 116.675 36.4799 116.675 41.0343C116.675 45.5887 113.528 49.3026 109.753 49.3026C105.977 49.3026 102.83 45.5959 102.83 41.0343C102.83 36.4727 105.937 32.7444 109.753 32.7444V32.7659Z" fill="#2B2A36"/>
<path d="M87.2605 50.5238C91.8071 50.5238 95.5121 46.2639 95.5121 41.0343C95.5121 35.8046 91.8071 31.5519 87.2605 31.5519C82.7138 31.5519 79.001 35.8046 79.001 41.0343C79.001 46.2639 82.706 50.5238 87.2605 50.5238ZM87.2605 32.7659C91.0756 32.7659 94.1748 36.4799 94.1748 41.0343C94.1748 45.5887 91.0756 49.3026 87.2605 49.3026C83.4454 49.3026 80.3382 45.5959 80.3382 41.0343C80.3382 36.4727 83.4454 32.7444 87.2605 32.7444V32.7659Z" fill="#2B2A36"/>
<path d="M95.1223 41.6162C96.7663 40.438 97.9305 39.928 99.0553 40.0286C99.9951 40.1238 100.862 40.5363 101.486 41.1851C102.477 40.359 101.219 38.9367 99.1261 38.8002C98.2861 38.7822 97.4517 38.9294 96.6794 39.2319C95.9071 39.5343 95.2151 39.9849 94.6503 40.553C94.7683 41.5515 94.9492 41.6162 95.1223 41.6162Z" fill="#2B2A36"/>
<path d="M93.0023 56.4633C93.1349 56.5011 100.781 60.0838 103.75 57.1494C103.893 57.1905 103.992 57.3458 104.029 57.5857C104.066 57.8256 104.039 58.1333 103.952 58.4497C103.865 58.7662 103.725 59.0692 103.558 59.3009C103.391 59.5326 103.209 59.6767 103.048 59.7055C99.9949 62.616 92.4203 59.0705 92.2369 59.0014C92.1587 58.9891 92.0912 58.944 92.0383 58.8688C91.9853 58.7937 91.9479 58.6898 91.9282 58.5633C91.9084 58.4367 91.9068 58.2899 91.9233 58.1312C91.9398 57.9725 91.9742 57.805 92.0245 57.6384C92.0747 57.4717 92.1399 57.3091 92.2162 57.1599C92.2925 57.0106 92.3786 56.8776 92.4694 56.7685C92.5602 56.6594 92.6539 56.5763 92.7454 56.5239C92.8368 56.4715 92.9241 56.4509 93.0023 56.4633Z" fill="#2B2A36"/>
<path d="M89.0717 42.55C89.3565 42.5579 89.6335 42.464 89.8436 42.2882C90.0537 42.1124 90.1803 41.8687 90.1966 41.6089L90.3303 38.8576C90.3239 38.6087 90.2145 38.3713 90.0241 38.1932C89.8337 38.0151 89.5765 37.9094 89.3042 37.8976C89.0319 37.8858 88.7649 37.9686 88.5568 38.1294C88.3487 38.2902 88.2151 38.517 88.1828 38.7642L88.0491 41.5227C88.0384 41.7821 88.1394 42.035 88.3307 42.2271C88.5219 42.4192 88.7879 42.5351 89.0717 42.55Z" fill="#2B2A36"/>
<path d="M105.352 43.2326C105.493 43.2384 105.633 43.2188 105.765 43.175C105.898 43.1311 106.019 43.0639 106.123 42.9772C106.226 42.8904 106.31 42.7859 106.37 42.6694C106.429 42.553 106.463 42.427 106.469 42.2987L106.611 39.5402C106.603 39.2918 106.492 39.0553 106.301 38.8783C106.11 38.7013 105.853 38.5968 105.581 38.5859C105.309 38.575 105.043 38.6584 104.835 38.8195C104.628 38.9805 104.495 39.2072 104.463 39.454L104.33 42.2125C104.323 42.3408 104.345 42.469 104.393 42.5898C104.441 42.7105 104.514 42.8215 104.609 42.9162C104.704 43.011 104.819 43.0877 104.946 43.142C105.074 43.1962 105.212 43.227 105.352 43.2326Z" fill="#2B2A36"/>
<path d="M85.822 35.3337L90.771 35.3773C90.8559 35.3783 90.9399 35.3947 91.0182 35.4254C91.0966 35.4562 91.1677 35.5007 91.2276 35.5564C91.2874 35.6121 91.3348 35.6779 91.367 35.75C91.3991 35.8222 91.4155 35.8993 91.4151 35.9768C91.401 36.1279 91.3292 36.2689 91.2122 36.3753C91.0952 36.4816 90.9405 36.5465 90.7751 36.5586L85.8737 36.5111C85.7892 36.511 85.7053 36.4956 85.6269 36.4657C85.5486 36.4358 85.4773 36.392 85.4173 36.3368C85.3573 36.2817 85.3098 36.2163 85.2775 36.1445C85.2452 36.0727 85.2287 35.996 85.2291 35.9187C85.2279 35.7698 85.2883 35.6268 85.3983 35.5182C85.5083 35.4097 85.6597 35.3438 85.822 35.3337Z" fill="#2B2A36"/>
<path d="M106.378 36.5495L111.305 36.6442C111.476 36.6463 111.643 36.5867 111.768 36.4782C111.893 36.3698 111.967 36.2212 111.974 36.0645C111.981 35.9114 111.922 35.7627 111.809 35.6506C111.697 35.5385 111.54 35.4721 111.372 35.4657L106.453 35.3704C106.368 35.3674 106.284 35.3799 106.204 35.4071C106.124 35.4344 106.051 35.476 105.988 35.5293C105.926 35.5826 105.876 35.6467 105.841 35.7177C105.805 35.7888 105.786 35.8653 105.784 35.9429C105.776 36.0957 105.834 36.2444 105.945 36.3576C106.056 36.4708 106.211 36.5396 106.378 36.5495Z" fill="#2B2A36"/>
</svg>
